<?xml version="1.0" encoding="utf-8"?>
<!-- Generator: Adobe Illustrator 26.0.1, SVG Export Plug-In . SVG Version: 6.00 Build 0)  -->
<!DOCTYPE svg PUBLIC "-//W3C//DTD SVG 1.1//EN" "http://www.w3.org/Graphics/SVG/1.1/DTD/svg11.dtd" [
	<!ENTITY ns_extend "http://ns.adobe.com/Extensibility/1.0/">
	<!ENTITY ns_ai "http://ns.adobe.com/AdobeIllustrator/10.0/">
	<!ENTITY ns_graphs "http://ns.adobe.com/Graphs/1.0/">
	<!ENTITY ns_vars "http://ns.adobe.com/Variables/1.0/">
	<!ENTITY ns_imrep "http://ns.adobe.com/ImageReplacement/1.0/">
	<!ENTITY ns_sfw "http://ns.adobe.com/SaveForWeb/1.0/">
	<!ENTITY ns_custom "http://ns.adobe.com/GenericCustomNamespace/1.0/">
	<!ENTITY ns_adobe_xpath "http://ns.adobe.com/XPath/1.0/">
]>
<svg version="1.1" id="publicdomainvectors.org" xmlns:x="&ns_extend;" xmlns:i="&ns_ai;" xmlns:graph="&ns_graphs;"
	 xmlns="http://www.w3.org/2000/svg" xmlns:xlink="http://www.w3.org/1999/xlink" x="0px" y="0px" viewBox="0 0 272.8 537.6"
	 enable-background="new 0 0 272.8 537.6" xml:space="preserve">
<metadata>
	<sfw  xmlns="&ns_sfw;">
		<slices></slices>
		<sliceSourceBounds  bottomLeftOrigin="true" height="537.6" width="272.8" x="368.2" y="69.8"></sliceSourceBounds>
		<optimizationSettings>
			<targetSettings  fileFormat="JPEGFormat" targetSettingsID="0">
				
					<JPEGFormat  blurAmount="0" embedICCProfile="false" matteColor="#FFFFFF" noMatteColor="false" optimized="true" progressive="true" quality="60">
					</JPEGFormat>
			</targetSettings>
		</optimizationSettings>
	</sfw>
</metadata>
<g>
	<polygon fill-rule="evenodd" clip-rule="evenodd" fill="#18143c" points="0,78.8 272.8,78.8 136.4,537.6 0,458.9 	"/>
	<polygon fill-rule="evenodd" clip-rule="evenodd" fill="#18144c" points="0,78.8 136.4,0 272.8,78.8 136.4,157.5 	"/>
	<polygon fill-rule="evenodd" clip-rule="evenodd" fill="#18143c" points="24.4,78.8 136.4,143.4 248.4,78.8 136.4,14.1 	"/>
	<polygon fill-rule="evenodd" clip-rule="evenodd" fill="#18145c" points="136.4,537.6 136.4,157.5 272.8,78.8 272.8,458.9 	"/>
	<path fill-rule="evenodd" clip-rule="evenodd" fill="#000000" d="M146.5,168.2c19.3-11.1,38.6-22.3,57.8-33.4
		c19.3-11.1,38.6-22.3,57.9-33.4c0,5.7,0,11.3,0,17c0,5.7,0,11.3,0,17c-19.3,11.1-38.6,22.3-57.9,33.4
		c-19.3,11.1-38.6,22.3-57.8,33.4c0-5.7,0-11.3,0-17C146.5,179.5,146.5,173.9,146.5,168.2z"/>
	<path fill-rule="evenodd" clip-rule="evenodd" fill="#337700" d="M262.3,128.6c-19.3,11.1-38.6,22.3-57.9,33.4
		c-19.3,11.1-38.6,22.3-57.8,33.4c0,2.2,0,4.5,0,6.7c19.3-11.1,38.6-22.3,57.8-33.4c19.3-11.1,38.6-22.3,57.9-33.4
		C262.3,133.1,262.3,130.8,262.3,128.6z"/>
	<path fill-rule="evenodd" clip-rule="evenodd" fill="#F3AE00" d="M155.3,167.4c1.1-0.6,2.2-1.3,3.3-1.9c0,2.5,0,4.9,0,7.4
			c-1.1,0.6-2.2,1.3-3.3,1.9C155.3,172.4,155.3,169.9,155.3,167.4L155.3,167.4z">
	    <animate attributeName="opacity" values="1;.4;1" dur="0.7s" keyTimes="0;0.5;1" repeatCount="indefinite" />
	</path>
	<path fill-rule="evenodd" clip-rule="evenodd" fill="#F3AE00" d="M161.5,163.8c1.1-0.6,2.2-1.3,3.3-1.9c0,2.5,0,4.9,0,7.4
			c-1.1,0.6-2.2,1.3-3.3,1.9C161.5,168.7,161.5,166.3,161.5,163.8L161.5,163.8z">
	    <animate attributeName="opacity" values="1;.4;1" dur="1.2s" keyTimes="0;0.3;1" repeatCount="indefinite" />
	</path>
	<path fill-rule="evenodd" clip-rule="evenodd" fill="#F3AE00" d="M167.8,160.2c1.1-0.6,2.2-1.3,3.3-1.9c0,2.5,0,4.9,0,7.4
			c-1.1,0.6-2.2,1.3-3.3,1.9C167.8,165.1,167.8,162.7,167.8,160.2L167.8,160.2z">
	    <animate attributeName="opacity" values="1;.4;1" dur="0.9s" keyTimes="0;0.6;1" repeatCount="indefinite" />
	</path>
	<path fill-rule="evenodd" clip-rule="evenodd" fill="#F3AE00" d="M174.1,156.6c1.1-0.6,2.2-1.3,3.3-1.9c0,2.5,0,4.9,0,7.4
			c-1.1,0.6-2.2,1.3-3.3,1.9C174.1,161.5,174.1,159,174.1,156.6L174.1,156.6z">
	    <animate attributeName="opacity" values="1;.4;1" dur="1.1s" keyTimes="0;0.4;1" repeatCount="indefinite" />
	</path>
	<path fill-rule="evenodd" clip-rule="evenodd" fill="#F3AE00" d="M180.3,153c1.1-0.6,2.2-1.3,3.3-1.9c0,2.5,0,4.9,0,7.4
			c-1.1,0.6-2.2,1.3-3.3,1.9C180.3,157.9,180.3,155.4,180.3,153L180.3,153z">
	    <animate attributeName="opacity" values="1;.4;1" dur="0.8s" keyTimes="0;0.7;1" repeatCount="indefinite" />
	</path>
	<path fill-rule="evenodd" clip-rule="evenodd" fill="#F3AE00" d="M186.6,149.3c1.1-0.6,2.2-1.3,3.3-1.9c0,2.5,0,4.9,0,7.4
			c-1.1,0.6-2.2,1.3-3.3,1.9C186.6,154.3,186.6,151.8,186.6,149.3L186.6,149.3z">
	    <animate attributeName="opacity" values="1;.4;1" dur="1.3s" keyTimes="0;0.5;1" repeatCount="indefinite" />
	</path>
	<path fill-rule="evenodd" clip-rule="evenodd" fill="#F3AE00" d="M192.9,145.7c1.1-0.6,2.2-1.3,3.3-1.9c0,2.5,0,4.9,0,7.4
			c-1.1,0.6-2.2,1.3-3.3,1.9C192.9,150.7,192.9,148.2,192.9,145.7L192.9,145.7z">
	    <animate attributeName="opacity" values="1;.4;1" dur="0.6s" keyTimes="0;0.4;1" repeatCount="indefinite" />
	</path>
	<path fill-rule="evenodd" clip-rule="evenodd" fill="#F3AE00" d="M199.1,142.1c1.1-0.6,2.2-1.3,3.3-1.9c0,2.5,0,4.9,0,7.4
			c-1.1,0.6-2.2,1.3-3.3,1.9C199.1,147,199.1,144.6,199.1,142.1L199.1,142.1z">
	    <animate attributeName="opacity" values="1;.4;1" dur="1.0s" keyTimes="0;0.6;1" repeatCount="indefinite" />
	</path>
	<path fill-rule="evenodd" clip-rule="evenodd" fill="#F3AE00" d="M205.4,138.5c1.1-0.6,2.2-1.3,3.3-1.9c0,2.5,0,4.9,0,7.4
			c-1.1,0.6-2.2,1.3-3.3,1.9C205.4,143.4,205.4,141,205.4,138.5L205.4,138.5z">
	    <animate attributeName="opacity" values="1;.4;1" dur="1.4s" keyTimes="0;0.3;1" repeatCount="indefinite" />
	</path>
	<path fill-rule="evenodd" clip-rule="evenodd" fill="#F3AE00" d="M211.6,134.9c1.1-0.6,2.2-1.3,3.3-1.9c0,2.5,0,4.9,0,7.4
			c-1.1,0.6-2.2,1.3-3.3,1.9C211.6,139.8,211.6,137.4,211.6,134.9L211.6,134.9z">
	    <animate attributeName="opacity" values="1;.4;1" dur="0.8s" keyTimes="0;0.5;1" repeatCount="indefinite" />
	</path>
	<path fill-rule="evenodd" clip-rule="evenodd" fill="#F3AE00" d="M217.9,131.3c1.1-0.6,2.2-1.3,3.3-1.9c0,2.5,0,4.9,0,7.4
			c-1.1,0.6-2.2,1.3-3.3,1.9C217.9,136.2,217.9,133.7,217.9,131.3L217.9,131.3z">
	    <animate attributeName="opacity" values="1;.4;1" dur="1.1s" keyTimes="0;0.7;1" repeatCount="indefinite" />
	</path>
	<path fill-rule="evenodd" clip-rule="evenodd" fill="#F3AE00" d="M149,171c1.1-0.6,2.2-1.3,3.3-1.9c0,2.5,0,4.9,0,7.4
			c-1.1,0.6-2.2,1.3-3.3,1.9C149,176,149,173.5,149,171z">
	    <animate attributeName="opacity" values="1;.4;1" dur="0.9s" keyTimes="0;0.4;1" repeatCount="indefinite" />
	</path>

	<path fill-rule="evenodd" clip-rule="evenodd" fill="#31A2CC" d="M155.3,178.6c1.1-0.6,2.2-1.3,3.3-1.9c0,2.5,0,4.9,0,7.4
			c-1.1,0.6-2.2,1.3-3.3,1.9C155.3,183.5,155.3,181.1,155.3,178.6L155.3,178.6z">
	    <animate attributeName="opacity" values="1;.4;1" dur="0.7s" keyTimes="0;0.5;1" repeatCount="indefinite" />
	</path>
	<path fill-rule="evenodd" clip-rule="evenodd" fill="#31A2CC" d="M161.5,175c1.1-0.6,2.2-1.3,3.3-1.9c0,2.5,0,4.9,0,7.4
			c-1.1,0.6-2.2,1.3-3.3,1.9C161.5,179.9,161.5,177.5,161.5,175L161.5,175z">
	    <animate attributeName="opacity" values="1;.4;1" dur="1.2s" keyTimes="0;0.3;1" repeatCount="indefinite" />
	</path>
	<path fill-rule="evenodd" clip-rule="evenodd" fill="#31A2CC" d="M167.8,171.4c1.1-0.6,2.2-1.3,3.3-1.9c0,2.5,0,4.9,0,7.4
			c-1.1,0.6-2.2,1.3-3.3,1.9C167.8,176.3,167.8,173.8,167.8,171.4L167.8,171.4z">
	    <animate attributeName="opacity" values="1;.4;1" dur="0.9s" keyTimes="0;0.6;1" repeatCount="indefinite" />
	</path>
	<path fill-rule="evenodd" clip-rule="evenodd" fill="#31A2CC" d="M174.1,167.8c1.1-0.6,2.2-1.3,3.3-1.9c0,2.5,0,4.9,0,7.4
			c-1.1,0.6-2.2,1.3-3.3,1.9C174.1,172.7,174.1,170.2,174.1,167.8L174.1,167.8z">
	    <animate attributeName="opacity" values="1;.4;1" dur="1.1s" keyTimes="0;0.4;1" repeatCount="indefinite" />
	</path>
	<path fill-rule="evenodd" clip-rule="evenodd" fill="#31A2CC" d="M180.3,164.1c1.1-0.6,2.2-1.3,3.3-1.9c0,2.5,0,4.9,0,7.4
			c-1.1,0.6-2.2,1.3-3.3,1.9C180.3,169.1,180.3,166.6,180.3,164.1L180.3,164.1z">
	    <animate attributeName="opacity" values="1;.4;1" dur="0.8s" keyTimes="0;0.7;1" repeatCount="indefinite" />
	</path>
	<path fill-rule="evenodd" clip-rule="evenodd" fill="#31A2CC" d="M186.6,160.5c1.1-0.6,2.2-1.3,3.3-1.9c0,2.5,0,4.9,0,7.4
			c-1.1,0.6-2.2,1.3-3.3,1.9C186.6,165.5,186.6,163,186.6,160.5L186.6,160.5z">
	    <animate attributeName="opacity" values="1;.4;1" dur="1.3s" keyTimes="0;0.5;1" repeatCount="indefinite" />
	</path>
	<path fill-rule="evenodd" clip-rule="evenodd" fill="#31A2CC" d="M192.9,156.9c1.1-0.6,2.2-1.3,3.3-1.9c0,2.5,0,4.9,0,7.4
			c-1.1,0.6-2.2,1.3-3.3,1.9C192.9,161.8,192.9,159.4,192.9,156.9L192.9,156.9z">
	    <animate attributeName="opacity" values="1;.4;1" dur="0.6s" keyTimes="0;0.4;1" repeatCount="indefinite" />
	</path>
	<path fill-rule="evenodd" clip-rule="evenodd" fill="#31A2CC" d="M199.1,153.3c1.1-0.6,2.2-1.3,3.3-1.9c0,2.5,0,4.9,0,7.4
			c-1.1,0.6-2.2,1.3-3.3,1.9C199.1,158.2,199.1,155.8,199.1,153.3L199.1,153.3z">
	    <animate attributeName="opacity" values="1;.4;1" dur="1.0s" keyTimes="0;0.6;1" repeatCount="indefinite" />
	</path>
	<path fill-rule="evenodd" clip-rule="evenodd" fill="#31A2CC" d="M205.4,149.7c1.1-0.6,2.2-1.3,3.3-1.9c0,2.5,0,4.9,0,7.4
			c-1.1,0.6-2.2,1.3-3.3,1.9C205.4,154.6,205.4,152.1,205.4,149.7L205.4,149.7z">
	    <animate attributeName="opacity" values="1;.4;1" dur="1.4s" keyTimes="0;0.3;1" repeatCount="indefinite" />
	</path>
	<path fill-rule="evenodd" clip-rule="evenodd" fill="#31A2CC" d="M211.6,146.1c1.1-0.6,2.2-1.3,3.3-1.9c0,2.5,0,4.9,0,7.4
			c-1.1,0.6-2.2,1.3-3.3,1.9C211.6,151,211.6,148.5,211.6,146.1L211.6,146.1z">
	    <animate attributeName="opacity" values="1;.4;1" dur="0.8s" keyTimes="0;0.5;1" repeatCount="indefinite" />
	</path>
	<path fill-rule="evenodd" clip-rule="evenodd" fill="#31A2CC" d="M217.9,142.4c1.1-0.6,2.2-1.3,3.3-1.9c0,2.5,0,4.9,0,7.4
			c-1.1,0.6-2.2,1.3-3.3,1.9C217.9,147.4,217.9,144.9,217.9,142.4L217.9,142.4z">
	    <animate attributeName="opacity" values="1;.4;1" dur="1.1s" keyTimes="0;0.7;1" repeatCount="indefinite" />
	</path>
	<path fill-rule="evenodd" clip-rule="evenodd" fill="#31A2CC" d="M149,182.2c1.1-0.6,2.2-1.3,3.3-1.9c0,2.5,0,4.9,0,7.4
			c-1.1,0.6-2.2,1.3-3.3,1.9C149,187.1,149,184.7,149,182.2z">
	    <animate attributeName="opacity" values="1;.4;1" dur="0.9s" keyTimes="0;0.4;1" repeatCount="indefinite" />
	</path>
	<path fill-rule="evenodd" clip-rule="evenodd" fill="#D2DD77" d="M227.4,125.8c9.4-5.5,18.9-10.9,28.3-16.4c0,3.1,0,6.2,0,9.3
		c0,3.1,0,6.2,0,9.3c-9.4,5.5-18.9,10.9-28.3,16.4c0-3.1,0-6.2,0-9.3S227.4,128.9,227.4,125.8z"/>
	<path fill-rule="evenodd" clip-rule="evenodd" fill="#000000" d="M146.5,214c19.3-11.1,38.6-22.3,57.8-33.4
		c19.3-11.1,38.6-22.3,57.9-33.4c0,5.7,0,11.3,0,17c0,5.7,0,11.3,0,17c-19.3,11.1-38.6,22.3-57.9,33.4
		c-19.3,11.1-38.6,22.3-57.8,33.4c0-5.7,0-11.3,0-17C146.5,225.3,146.5,219.7,146.5,214z"/>
	<path fill-rule="evenodd" clip-rule="evenodd" fill="#337700" d="M262.3,174.4c-19.3,11.1-38.6,22.3-57.9,33.4
		c-19.3,11.1-38.6,22.3-57.8,33.4c0,2.2,0,4.5,0,6.7c19.3-11.1,38.6-22.3,57.8-33.4c19.3-11.1,38.6-22.3,57.9-33.4
		C262.3,178.9,262.3,176.7,262.3,174.4z"/>
	<path fill-rule="evenodd" clip-rule="evenodd" fill="#F3AE00" d="M155.3,213.2c1.1-0.6,2.2-1.3,3.3-1.9c0,2.5,0,4.9,0,7.4
		c-1.1,0.6-2.2,1.3-3.3,1.9C155.3,218.2,155.3,215.7,155.3,213.2L155.3,213.2z">
    <animate attributeName="opacity" values="1;.4;1" dur="0.7s" keyTimes="0;0.5;1" repeatCount="indefinite" />
	</path>
	<path fill-rule="evenodd" clip-rule="evenodd" fill="#F3AE00" d="M161.5,209.6c1.1-0.6,2.2-1.3,3.3-1.9c0,2.5,0,4.9,0,7.4
			c-1.1,0.6-2.2,1.3-3.3,1.9C161.5,214.5,161.5,212.1,161.5,209.6L161.5,209.6z">
	    <animate attributeName="opacity" values="1;.4;1" dur="1.2s" keyTimes="0;0.3;1" repeatCount="indefinite" />
	</path>
	<path fill-rule="evenodd" clip-rule="evenodd" fill="#F3AE00" d="M167.8,206c1.1-0.6,2.2-1.3,3.3-1.9c0,2.5,0,4.9,0,7.4
			c-1.1,0.6-2.2,1.3-3.3,1.9C167.8,210.9,167.8,208.5,167.8,206L167.8,206z">
	    <animate attributeName="opacity" values="1;.4;1" dur="0.9s" keyTimes="0;0.6;1" repeatCount="indefinite" />
	</path>
	<path fill-rule="evenodd" clip-rule="evenodd" fill="#F3AE00" d="M174.1,202.4c1.1-0.6,2.2-1.3,3.3-1.9c0,2.5,0,4.9,0,7.4
			c-1.1,0.6-2.2,1.3-3.3,1.9C174.1,207.3,174.1,204.8,174.1,202.4L174.1,202.4z">
	    <animate attributeName="opacity" values="1;.4;1" dur="1.1s" keyTimes="0;0.4;1" repeatCount="indefinite" />
	</path>
	<path fill-rule="evenodd" clip-rule="evenodd" fill="#F3AE00" d="M180.3,198.8c1.1-0.6,2.2-1.3,3.3-1.9c0,2.5,0,4.9,0,7.4
			c-1.1,0.6-2.2,1.3-3.3,1.9C180.3,203.7,180.3,201.2,180.3,198.8L180.3,198.8z">
	    <animate attributeName="opacity" values="1;.4;1" dur="0.8s" keyTimes="0;0.7;1" repeatCount="indefinite" />
	</path>
	<path fill-rule="evenodd" clip-rule="evenodd" fill="#F3AE00" d="M186.6,195.2c1.1-0.6,2.2-1.3,3.3-1.9c0,2.5,0,4.9,0,7.4
			c-1.1,0.6-2.2,1.3-3.3,1.9C186.6,200.1,186.6,197.6,186.6,195.2L186.6,195.2z">
	    <animate attributeName="opacity" values="1;.4;1" dur="1.3s" keyTimes="0;0.5;1" repeatCount="indefinite" />
	</path>
	<path fill-rule="evenodd" clip-rule="evenodd" fill="#F3AE00" d="M192.9,191.5c1.1-0.6,2.2-1.3,3.3-1.9c0,2.5,0,4.9,0,7.4
			c-1.1,0.6-2.2,1.3-3.3,1.9C192.9,196.5,192.9,194,192.9,191.5L192.9,191.5z">
	    <animate attributeName="opacity" values="1;.4;1" dur="0.6s" keyTimes="0;0.4;1" repeatCount="indefinite" />
	</path>
	<path fill-rule="evenodd" clip-rule="evenodd" fill="#F3AE00" d="M199.1,187.9c1.1-0.6,2.2-1.3,3.3-1.9c0,2.5,0,4.9,0,7.4
			c-1.1,0.6-2.2,1.3-3.3,1.9C199.1,192.9,199.1,190.4,199.1,187.9L199.1,187.9z">
	    <animate attributeName="opacity" values="1;.4;1" dur="1.0s" keyTimes="0;0.6;1" repeatCount="indefinite" />
	</path>
	<path fill-rule="evenodd" clip-rule="evenodd" fill="#F3AE00" d="M205.4,184.3c1.1-0.6,2.2-1.3,3.3-1.9c0,2.5,0,4.9,0,7.4
			c-1.1,0.6-2.2,1.3-3.3,1.9C205.4,189.2,205.4,186.8,205.4,184.3L205.4,184.3z">
	    <animate attributeName="opacity" values="1;.4;1" dur="1.4s" keyTimes="0;0.3;1" repeatCount="indefinite" />
	</path>
	<path fill-rule="evenodd" clip-rule="evenodd" fill="#F3AE00" d="M211.6,180.7c1.1-0.6,2.2-1.3,3.3-1.9c0,2.5,0,4.9,0,7.4
			c-1.1,0.6-2.2,1.3-3.3,1.9C211.6,185.6,211.6,183.2,211.6,180.7L211.6,180.7z">
	    <animate attributeName="opacity" values="1;.4;1" dur="0.8s" keyTimes="0;0.5;1" repeatCount="indefinite" />
	</path>
	<path fill-rule="evenodd" clip-rule="evenodd" fill="#F3AE00" d="M217.9,177.1c1.1-0.6,2.2-1.3,3.3-1.9c0,2.5,0,4.9,0,7.4
			c-1.1,0.6-2.2,1.3-3.3,1.9C217.9,182,217.9,179.5,217.9,177.1L217.9,177.1z">
	    <animate attributeName="opacity" values="1;.4;1" dur="1.1s" keyTimes="0;0.7;1" repeatCount="indefinite" />
	</path>
	<path fill-rule="evenodd" clip-rule="evenodd" fill="#F3AE00" d="M149,216.8c1.1-0.6,2.2-1.3,3.3-1.9c0,2.5,0,4.9,0,7.4
			c-1.1,0.6-2.2,1.3-3.3,1.9C149,221.8,149,219.3,149,216.8z">
	    <animate attributeName="opacity" values="1;.4;1" dur="0.9s" keyTimes="0;0.4;1" repeatCount="indefinite" />
	</path>
	<path fill-rule="evenodd" clip-rule="evenodd" fill="#31A2CC" d="M155.3,224.4c1.1-0.6,2.2-1.3,3.3-1.9c0,2.5,0,4.9,0,7.4
			c-1.1,0.6-2.2,1.3-3.3,1.9C155.3,229.3,155.3,226.9,155.3,224.4L155.3,224.4z">
	    <animate attributeName="opacity" values="1;.4;1" dur="0.7s" keyTimes="0;0.5;1" repeatCount="indefinite" />
	</path>
	<path fill-rule="evenodd" clip-rule="evenodd" fill="#31A2CC" d="M161.5,220.8c1.1-0.6,2.2-1.3,3.3-1.9c0,2.5,0,4.9,0,7.4
			c-1.1,0.6-2.2,1.3-3.3,1.9C161.5,225.7,161.5,223.3,161.5,220.8L161.5,220.8z">
	    <animate attributeName="opacity" values="1;.4;1" dur="1.2s" keyTimes="0;0.3;1" repeatCount="indefinite" />
	</path>
	<path fill-rule="evenodd" clip-rule="evenodd" fill="#31A2CC" d="M167.8,217.2c1.1-0.6,2.2-1.3,3.3-1.9c0,2.5,0,4.9,0,7.4
			c-1.1,0.6-2.2,1.3-3.3,1.9C167.8,222.1,167.8,219.6,167.8,217.2L167.8,217.2z">
	    <animate attributeName="opacity" values="1;.4;1" dur="0.9s" keyTimes="0;0.6;1" repeatCount="indefinite" />
	</path>
	<path fill-rule="evenodd" clip-rule="evenodd" fill="#31A2CC" d="M174.1,213.6c1.1-0.6,2.2-1.3,3.3-1.9c0,2.5,0,4.9,0,7.4
			c-1.1,0.6-2.2,1.3-3.3,1.9C174.1,218.5,174.1,216,174.1,213.6L174.1,213.6z">
	    <animate attributeName="opacity" values="1;.4;1" dur="1.1s" keyTimes="0;0.4;1" repeatCount="indefinite" />
	</path>
	<path fill-rule="evenodd" clip-rule="evenodd" fill="#31A2CC" d="M180.3,209.9c1.1-0.6,2.2-1.3,3.3-1.9c0,2.5,0,4.9,0,7.4
			c-1.1,0.6-2.2,1.3-3.3,1.9C180.3,214.9,180.3,212.4,180.3,209.9L180.3,209.9z">
	    <animate attributeName="opacity" values="1;.4;1" dur="0.8s" keyTimes="0;0.7;1" repeatCount="indefinite" />
	</path>
	<path fill-rule="evenodd" clip-rule="evenodd" fill="#31A2CC" d="M186.6,206.3c1.1-0.6,2.2-1.3,3.3-1.9c0,2.5,0,4.9,0,7.4
			c-1.1,0.6-2.2,1.3-3.3,1.9C186.6,211.3,186.6,208.8,186.6,206.3L186.6,206.3z">
	    <animate attributeName="opacity" values="1;.4;1" dur="1.3s" keyTimes="0;0.5;1" repeatCount="indefinite" />
	</path>
	<path fill-rule="evenodd" clip-rule="evenodd" fill="#31A2CC" d="M192.9,202.7c1.1-0.6,2.2-1.3,3.3-1.9c0,2.5,0,4.9,0,7.4
			c-1.1,0.6-2.2,1.3-3.3,1.9C192.9,207.6,192.9,205.2,192.9,202.7L192.9,202.7z">
	    <animate attributeName="opacity" values="1;.4;1" dur="0.6s" keyTimes="0;0.4;1" repeatCount="indefinite" />
	</path>
	<path fill-rule="evenodd" clip-rule="evenodd" fill="#31A2CC" d="M199.1,199.1c1.1-0.6,2.2-1.3,3.3-1.9c0,2.5,0,4.9,0,7.4
			c-1.1,0.6-2.2,1.3-3.3,1.9C199.1,204,199.1,201.6,199.1,199.1L199.1,199.1z">
	    <animate attributeName="opacity" values="1;.4;1" dur="1.0s" keyTimes="0;0.6;1" repeatCount="indefinite" />
	</path>
	<path fill-rule="evenodd" clip-rule="evenodd" fill="#31A2CC" d="M205.4,195.5c1.1-0.6,2.2-1.3,3.3-1.9c0,2.5,0,4.9,0,7.4
			c-1.1,0.6-2.2,1.3-3.3,1.9C205.4,200.4,205.4,197.9,205.4,195.5L205.4,195.5z">
	    <animate attributeName="opacity" values="1;.4;1" dur="1.4s" keyTimes="0;0.3;1" repeatCount="indefinite" />
	</path>
	<path fill-rule="evenodd" clip-rule="evenodd" fill="#31A2CC" d="M211.6,191.9c1.1-0.6,2.2-1.3,3.3-1.9c0,2.5,0,4.9,0,7.4
			c-1.1,0.6-2.2,1.3-3.3,1.9C211.6,196.8,211.6,194.3,211.6,191.9L211.6,191.9z">
	    <animate attributeName="opacity" values="1;.4;1" dur="0.8s" keyTimes="0;0.5;1" repeatCount="indefinite" />
	</path>
	<path fill-rule="evenodd" clip-rule="evenodd" fill="#31A2CC" d="M217.9,188.3c1.1-0.6,2.2-1.3,3.3-1.9c0,2.5,0,4.9,0,7.4
			c-1.1,0.6-2.2,1.3-3.3,1.9C217.9,193.2,217.9,190.7,217.9,188.3L217.9,188.3z">
	    <animate attributeName="opacity" values="1;.4;1" dur="1.1s" keyTimes="0;0.7;1" repeatCount="indefinite" />
	</path>
	<path fill-rule="evenodd" clip-rule="evenodd" fill="#31A2CC" d="M149,228c1.1-0.6,2.2-1.3,3.3-1.9c0,2.5,0,4.9,0,7.4
			c-1.1,0.6-2.2,1.3-3.3,1.9C149,233,149,230.5,149,228z">
	    <animate attributeName="opacity" values="1;.4;1" dur="0.9s" keyTimes="0;0.4;1" repeatCount="indefinite" />
	</path>
	<path fill-rule="evenodd" clip-rule="evenodd" fill="#8BA631" d="M227.4,171.6c9.4-5.5,18.9-10.9,28.3-16.4c0,3.1,0,6.2,0,9.3
		c0,3.1,0,6.2,0,9.3c-9.4,5.5-18.9,10.9-28.3,16.4c0-3.1,0-6.2,0-9.3C227.4,177.8,227.4,174.7,227.4,171.6z"/>
	<path fill-rule="evenodd" clip-rule="evenodd" fill="#000000" d="M146.5,259.8c19.3-11.1,38.6-22.3,57.8-33.4
		c19.3-11.1,38.6-22.3,57.9-33.4c0,5.7,0,11.3,0,17c0,5.7,0,11.3,0,17c-19.3,11.1-38.6,22.3-57.9,33.4
		c-19.3,11.1-38.6,22.3-57.8,33.4c0-5.7,0-11.3,0-17C146.5,271.1,146.5,265.5,146.5,259.8z"/>
	<path fill-rule="evenodd" clip-rule="evenodd" fill="#337700" d="M262.3,220.2c-19.3,11.1-38.6,22.3-57.9,33.4
		c-19.3,11.1-38.6,22.3-57.8,33.4c0,2.2,0,4.5,0,6.7c19.3-11.1,38.6-22.3,57.8-33.4c19.3-11.1,38.6-22.3,57.9-33.4
		C262.3,224.7,262.3,222.5,262.3,220.2z"/>
	<path fill-rule="evenodd" clip-rule="evenodd" fill="#EB5F63" d="M155.3,259c1.1-0.6,2.2-1.3,3.3-1.9c0,2.5,0,4.9,0,7.4
			c-1.1,0.6-2.2,1.3-3.3,1.9C155.3,264,155.3,261.5,155.3,259L155.3,259z">
	    <animate attributeName="opacity" values="1;.4;1" dur="0.7s" keyTimes="0;0.5;1" repeatCount="indefinite" />
	</path>
	<path fill-rule="evenodd" clip-rule="evenodd" fill="#EB5F63" d="M161.5,255.4c1.1-0.6,2.2-1.3,3.3-1.9c0,2.5,0,4.9,0,7.4
			c-1.1,0.6-2.2,1.3-3.3,1.9C161.5,260.3,161.5,257.9,161.5,255.4L161.5,255.4z">
	    <animate attributeName="opacity" values="1;.4;1" dur="1.2s" keyTimes="0;0.3;1" repeatCount="indefinite" />
	</path>
	<path fill-rule="evenodd" clip-rule="evenodd" fill="#EB5F63" d="M167.8,251.8c1.1-0.6,2.2-1.3,3.3-1.9c0,2.5,0,4.9,0,7.4
			c-1.1,0.6-2.2,1.3-3.3,1.9C167.8,256.7,167.8,254.3,167.8,251.8L167.8,251.8z">
	    <animate attributeName="opacity" values="1;.4;1" dur="0.9s" keyTimes="0;0.6;1" repeatCount="indefinite" />
	</path>
	<path fill-rule="evenodd" clip-rule="evenodd" fill="#EB5F63" d="M174.1,248.2c1.1-0.6,2.2-1.3,3.3-1.9c0,2.5,0,4.9,0,7.4
			c-1.1,0.6-2.2,1.3-3.3,1.9C174.1,253.1,174.1,250.7,174.1,248.2L174.1,248.2z">
	    <animate attributeName="opacity" values="1;.4;1" dur="1.1s" keyTimes="0;0.4;1" repeatCount="indefinite" />
	</path>
	<path fill-rule="evenodd" clip-rule="evenodd" fill="#EB5F63" d="M180.3,244.6c1.1-0.6,2.2-1.3,3.3-1.9c0,2.5,0,4.9,0,7.4
			c-1.1,0.6-2.2,1.3-3.3,1.9C180.3,249.5,180.3,247,180.3,244.6L180.3,244.6z">
	    <animate attributeName="opacity" values="1;.4;1" dur="0.8s" keyTimes="0;0.7;1" repeatCount="indefinite" />
	</path>
	<path fill-rule="evenodd" clip-rule="evenodd" fill="#EB5F63" d="M186.6,241c1.1-0.6,2.2-1.3,3.3-1.9c0,2.5,0,4.9,0,7.4
			c-1.1,0.6-2.2,1.3-3.3,1.9C186.6,245.9,186.6,243.4,186.6,241L186.6,241z">
	    <animate attributeName="opacity" values="1;.4;1" dur="1.3s" keyTimes="0;0.5;1" repeatCount="indefinite" />
	</path>
	<path fill-rule="evenodd" clip-rule="evenodd" fill="#EB5F63" d="M192.9,237.3c1.1-0.6,2.2-1.3,3.3-1.9c0,2.5,0,4.9,0,7.4
			c-1.1,0.6-2.2,1.3-3.3,1.9C192.9,242.3,192.9,239.8,192.9,237.3L192.9,237.3z">
	    <animate attributeName="opacity" values="1;.4;1" dur="0.6s" keyTimes="0;0.4;1" repeatCount="indefinite" />
	</path>
	<path fill-rule="evenodd" clip-rule="evenodd" fill="#EB5F63" d="M199.1,233.7c1.1-0.6,2.2-1.3,3.3-1.9c0,2.5,0,4.9,0,7.4
			c-1.1,0.6-2.2,1.3-3.3,1.9C199.1,238.7,199.1,236.2,199.1,233.7L199.1,233.7z">
	    <animate attributeName="opacity" values="1;.4;1" dur="1.0s" keyTimes="0;0.6;1" repeatCount="indefinite" />
	</path>
	<path fill-rule="evenodd" clip-rule="evenodd" fill="#EB5F63" d="M205.4,230.1c1.1-0.6,2.2-1.3,3.3-1.9c0,2.5,0,4.9,0,7.4
			c-1.1,0.6-2.2,1.3-3.3,1.9C205.4,235,205.4,232.6,205.4,230.1L205.4,230.1z">
	    <animate attributeName="opacity" values="1;.4;1" dur="1.4s" keyTimes="0;0.3;1" repeatCount="indefinite" />
	</path>
	<path fill-rule="evenodd" clip-rule="evenodd" fill="#EB5F63" d="M211.6,226.5c1.1-0.6,2.2-1.3,3.3-1.9c0,2.5,0,4.9,0,7.4
			c-1.1,0.6-2.2,1.3-3.3,1.9C211.6,231.4,211.6,229,211.6,226.5L211.6,226.5z">
	    <animate attributeName="opacity" values="1;.4;1" dur="0.8s" keyTimes="0;0.5;1" repeatCount="indefinite" />
	</path>
	<path fill-rule="evenodd" clip-rule="evenodd" fill="#EB5F63" d="M217.9,222.9c1.1-0.6,2.2-1.3,3.3-1.9c0,2.5,0,4.9,0,7.4
			c-1.1,0.6-2.2,1.3-3.3,1.9C217.9,227.8,217.9,225.3,217.9,222.9L217.9,222.9z">
	    <animate attributeName="opacity" values="1;.4;1" dur="1.1s" keyTimes="0;0.7;1" repeatCount="indefinite" />
	</path>
	<path fill-rule="evenodd" clip-rule="evenodd" fill="#EB5F63" d="M149,262.7c1.1-0.6,2.2-1.3,3.3-1.9c0,2.5,0,4.9,0,7.4
			c-1.1,0.6-2.2,1.3-3.3,1.9C149,267.6,149,265.1,149,262.7z">
	    <animate attributeName="opacity" values="1;.4;1" dur="0.9s" keyTimes="0;0.4;1" repeatCount="indefinite" />
	</path>

	<path fill-rule="evenodd" clip-rule="evenodd" fill="#8BA631" d="M155.3,270.2c1.1-0.6,2.2-1.3,3.3-1.9c0,2.5,0,4.9,0,7.4
			c-1.1,0.6-2.2,1.3-3.3,1.9C155.3,275.1,155.3,272.7,155.3,270.2L155.3,270.2z">
	    <animate attributeName="opacity" values="1;.4;1" dur="0.7s" keyTimes="0;0.5;1" repeatCount="indefinite" />
	</path>
	<path fill-rule="evenodd" clip-rule="evenodd" fill="#8BA631" d="M161.5,266.6c1.1-0.6,2.2-1.3,3.3-1.9c0,2.5,0,4.9,0,7.4
			c-1.1,0.6-2.2,1.3-3.3,1.9C161.5,271.5,161.5,269.1,161.5,266.6L161.5,266.6z">
	    <animate attributeName="opacity" values="1;.4;1" dur="1.2s" keyTimes="0;0.3;1" repeatCount="indefinite" />
	</path>
	<path fill-rule="evenodd" clip-rule="evenodd" fill="#8BA631" d="M167.8,263c1.1-0.6,2.2-1.3,3.3-1.9c0,2.5,0,4.9,0,7.4
			c-1.1,0.6-2.2,1.3-3.3,1.9C167.8,267.9,167.8,265.4,167.8,263L167.8,263z">
	    <animate attributeName="opacity" values="1;.4;1" dur="0.9s" keyTimes="0;0.6;1" repeatCount="indefinite" />
	</path>
	<path fill-rule="evenodd" clip-rule="evenodd" fill="#8BA631" d="M174.1,259.4c1.1-0.6,2.2-1.3,3.3-1.9c0,2.5,0,4.9,0,7.4
			c-1.1,0.6-2.2,1.3-3.3,1.9C174.1,264.3,174.1,261.8,174.1,259.4L174.1,259.4z">
	    <animate attributeName="opacity" values="1;.4;1" dur="1.1s" keyTimes="0;0.4;1" repeatCount="indefinite" />
	</path>
	<path fill-rule="evenodd" clip-rule="evenodd" fill="#8BA631" d="M180.3,255.8c1.1-0.6,2.2-1.3,3.3-1.9c0,2.5,0,4.9,0,7.4
			c-1.1,0.6-2.2,1.3-3.3,1.9C180.3,260.7,180.3,258.2,180.3,255.8L180.3,255.8z">
	    <animate attributeName="opacity" values="1;.4;1" dur="0.8s" keyTimes="0;0.7;1" repeatCount="indefinite" />
	</path>
	<path fill-rule="evenodd" clip-rule="evenodd" fill="#8BA631" d="M186.6,252.1c1.1-0.6,2.2-1.3,3.3-1.9c0,2.5,0,4.9,0,7.4
			c-1.1,0.6-2.2,1.3-3.3,1.9C186.6,257.1,186.6,254.6,186.6,252.1L186.6,252.1z">
	    <animate attributeName="opacity" values="1;.4;1" dur="1.3s" keyTimes="0;0.5;1" repeatCount="indefinite" />
	</path>
	<path fill-rule="evenodd" clip-rule="evenodd" fill="#8BA631" d="M192.9,248.5c1.1-0.6,2.2-1.3,3.3-1.9c0,2.5,0,4.9,0,7.4
			c-1.1,0.6-2.2,1.3-3.3,1.9C192.9,253.5,192.9,251,192.9,248.5L192.9,248.5z">
	    <animate attributeName="opacity" values="1;.4;1" dur="0.6s" keyTimes="0;0.4;1" repeatCount="indefinite" />
	</path>
	<path fill-rule="evenodd" clip-rule="evenodd" fill="#8BA631" d="M199.1,244.9c1.1-0.6,2.2-1.3,3.3-1.9c0,2.5,0,4.9,0,7.4
			c-1.1,0.6-2.2,1.3-3.3,1.9C199.1,249.8,199.1,247.4,199.1,244.9L199.1,244.9z">
	    <animate attributeName="opacity" values="1;.4;1" dur="1.0s" keyTimes="0;0.6;1" repeatCount="indefinite" />
	</path>
	<path fill-rule="evenodd" clip-rule="evenodd" fill="#8BA631" d="M205.4,241.3c1.1-0.6,2.2-1.3,3.3-1.9c0,2.5,0,4.9,0,7.4
			c-1.1,0.6-2.2,1.3-3.3,1.9C205.4,246.2,205.4,243.8,205.4,241.3L205.4,241.3z">
	    <animate attributeName="opacity" values="1;.4;1" dur="1.4s" keyTimes="0;0.3;1" repeatCount="indefinite" />
	</path>
	<path fill-rule="evenodd" clip-rule="evenodd" fill="#8BA631" d="M211.6,237.7c1.1-0.6,2.2-1.3,3.3-1.9c0,2.5,0,4.9,0,7.4
			c-1.1,0.6-2.2,1.3-3.3,1.9C211.6,242.6,211.6,240.1,211.6,237.7L211.6,237.7z">
	    <animate attributeName="opacity" values="1;.4;1" dur="0.8s" keyTimes="0;0.5;1" repeatCount="indefinite" />
	</path>
	<path fill-rule="evenodd" clip-rule="evenodd" fill="#8BA631" d="M217.9,234.1c1.1-0.6,2.2-1.3,3.3-1.9c0,2.5,0,4.9,0,7.4
			c-1.1,0.6-2.2,1.3-3.3,1.9C217.9,239,217.9,236.5,217.9,234.1L217.9,234.1z">
	    <animate attributeName="opacity" values="1;.4;1" dur="1.1s" keyTimes="0;0.7;1" repeatCount="indefinite" />
	</path>
	<path fill-rule="evenodd" clip-rule="evenodd" fill="#8BA631" d="M149,273.8c1.1-0.6,2.2-1.3,3.3-1.9c0,2.5,0,4.9,0,7.4
			c-1.1,0.6-2.2,1.3-3.3,1.9C149,278.8,149,276.3,149,273.8z">
	    <animate attributeName="opacity" values="1;.4;1" dur="0.9s" keyTimes="0;0.4;1" repeatCount="indefinite" />
	</path>

	<path fill-rule="evenodd" clip-rule="evenodd" fill="#D2DD77" d="M227.4,217.4c9.4-5.5,18.9-10.9,28.3-16.4c0,3.1,0,6.2,0,9.3
		c0,3.1,0,6.2,0,9.3c-9.4,5.5-18.9,10.9-28.3,16.4c0-3.1,0-6.2,0-9.3C227.4,223.6,227.4,220.5,227.4,217.4z"/>
	<path fill-rule="evenodd" clip-rule="evenodd" fill="#000000" d="M146.5,305.6c19.3-11.1,38.6-22.3,57.8-33.4
		c19.3-11.1,38.6-22.3,57.9-33.4c0,5.7,0,11.3,0,17c0,5.7,0,11.3,0,17c-19.3,11.1-38.6,22.3-57.9,33.4
		c-19.3,11.1-38.6,22.3-57.8,33.4c0-5.7,0-11.3,0-17C146.5,316.9,146.5,311.3,146.5,305.6z"/>
	<path fill-rule="evenodd" clip-rule="evenodd" fill="#337700" d="M262.3,266c-19.3,11.1-38.6,22.3-57.9,33.4
		c-19.3,11.1-38.6,22.3-57.8,33.4c0,2.2,0,4.5,0,6.7c19.3-11.1,38.6-22.3,57.8-33.4c19.3-11.1,38.6-22.3,57.9-33.4
		C262.3,270.5,262.3,268.3,262.3,266z"/>
	<path fill-rule="evenodd" clip-rule="evenodd" fill="#F3AE00" d="M155.3,304.8c1.1-0.6,2.2-1.3,3.3-1.9c0,2.5,0,4.9,0,7.4
			c-1.1,0.6-2.2,1.3-3.3,1.9C155.3,309.8,155.3,307.3,155.3,304.8L155.3,304.8z">
	    <animate attributeName="opacity" values="1;.4;1" dur="0.7s" keyTimes="0;0.5;1" repeatCount="indefinite" />
	</path>
	<path fill-rule="evenodd" clip-rule="evenodd" fill="#F3AE00" d="M161.5,301.2c1.1-0.6,2.2-1.3,3.3-1.9
			c0,2.5,0,4.9,0,7.4c-1.1,0.6-2.2,1.3-3.3,1.9C161.5,306.2,161.5,303.7,161.5,301.2L161.5,301.2z">
	    <animate attributeName="opacity" values="1;.4;1" dur="1.2s" keyTimes="0;0.3;1" repeatCount="indefinite" />
	</path>
	<path fill-rule="evenodd" clip-rule="evenodd" fill="#F3AE00" d="M167.8,297.6c1.1-0.6,2.2-1.3,3.3-1.9c0,2.5,0,4.9,0,7.4
			c-1.1,0.6-2.2,1.3-3.3,1.9C167.8,302.5,167.8,300.1,167.8,297.6L167.8,297.6z">
	    <animate attributeName="opacity" values="1;.4;1" dur="0.9s" keyTimes="0;0.6;1" repeatCount="indefinite" />
	</path>
	<path fill-rule="evenodd" clip-rule="evenodd" fill="#F3AE00" d="M174.1,294c1.1-0.6,2.2-1.3,3.3-1.9c0,2.5,0,4.9,0,7.4
			c-1.1,0.6-2.2,1.3-3.3,1.9C174.1,298.9,174.1,296.5,174.1,294L174.1,294z">
	    <animate attributeName="opacity" values="1;.4;1" dur="1.1s" keyTimes="0;0.4;1" repeatCount="indefinite" />
	</path>
	<path fill-rule="evenodd" clip-rule="evenodd" fill="#F3AE00" d="M180.3,290.4c1.1-0.6,2.2-1.3,3.3-1.9c0,2.5,0,4.9,0,7.4
			c-1.1,0.6-2.2,1.3-3.3,1.9C180.3,295.3,180.3,292.8,180.3,290.4L180.3,290.4z">
	    <animate attributeName="opacity" values="1;.4;1" dur="0.8s" keyTimes="0;0.7;1" repeatCount="indefinite" />
	</path>
	<path fill-rule="evenodd" clip-rule="evenodd" fill="#F3AE00" d="M186.6,286.8c1.1-0.6,2.2-1.3,3.3-1.9c0,2.5,0,4.9,0,7.4
			c-1.1,0.6-2.2,1.3-3.3,1.9C186.6,291.7,186.6,289.2,186.6,286.8L186.6,286.8z">
	    <animate attributeName="opacity" values="1;.4;1" dur="1.3s" keyTimes="0;0.5;1" repeatCount="indefinite" />
	</path>
	<path fill-rule="evenodd" clip-rule="evenodd" fill="#F3AE00" d="M192.9,283.2c1.1-0.6,2.2-1.3,3.3-1.9c0,2.5,0,4.9,0,7.4
			c-1.1,0.6-2.2,1.3-3.3,1.9C192.9,288.1,192.9,285.6,192.9,283.2L192.9,283.2z">
	    <animate attributeName="opacity" values="1;.4;1" dur="0.6s" keyTimes="0;0.4;1" repeatCount="indefinite" />
	</path>
	<path fill-rule="evenodd" clip-rule="evenodd" fill="#F3AE00" d="M199.1,279.5c1.1-0.6,2.2-1.3,3.3-1.9c0,2.5,0,4.9,0,7.4
			c-1.1,0.6-2.2,1.3-3.3,1.9C199.1,284.5,199.1,282,199.1,279.5L199.1,279.5z">
	    <animate attributeName="opacity" values="1;.4;1" dur="1.0s" keyTimes="0;0.6;1" repeatCount="indefinite" />
	</path>
	<path fill-rule="evenodd" clip-rule="evenodd" fill="#F3AE00" d="M205.4,275.9c1.1-0.6,2.2-1.3,3.3-1.9c0,2.5,0,4.9,0,7.4
			c-1.1,0.6-2.2,1.3-3.3,1.9C205.4,280.8,205.4,278.4,205.4,275.9L205.4,275.9z">
	    <animate attributeName="opacity" values="1;.4;1" dur="1.4s" keyTimes="0;0.3;1" repeatCount="indefinite" />
	</path>
	<path fill-rule="evenodd" clip-rule="evenodd" fill="#F3AE00" d="M211.6,272.3c1.1-0.6,2.2-1.3,3.3-1.9c0,2.5,0,4.9,0,7.4
			c-1.1,0.6-2.2,1.3-3.3,1.9C211.6,277.2,211.6,274.8,211.6,272.3L211.6,272.3z">
	    <animate attributeName="opacity" values="1;.4;1" dur="0.8s" keyTimes="0;0.5;1" repeatCount="indefinite" />
	</path>
	<path fill-rule="evenodd" clip-rule="evenodd" fill="#F3AE00" d="M217.9,268.7c1.1-0.6,2.2-1.3,3.3-1.9c0,2.5,0,4.9,0,7.4
			c-1.1,0.6-2.2,1.3-3.3,1.9C217.9,273.6,217.9,271.2,217.9,268.7L217.9,268.7z">
	    <animate attributeName="opacity" values="1;.4;1" dur="1.1s" keyTimes="0;0.7;1" repeatCount="indefinite" />
	</path>
	<path fill-rule="evenodd" clip-rule="evenodd" fill="#F3AE00" d="M149,308.5c1.1-0.6,2.2-1.3,3.3-1.9c0,2.5,0,4.9,0,7.4
			c-1.1,0.6-2.2,1.3-3.3,1.9C149,313.4,149,310.9,149,308.5z">
	    <animate attributeName="opacity" values="1;.4;1" dur="0.9s" keyTimes="0;0.4;1" repeatCount="indefinite" />
	</path>
	<path fill-rule="evenodd" clip-rule="evenodd" fill="#31A2CC" d="M155.3,316c1.1-0.6,2.2-1.3,3.3-1.9c0,2.5,0,4.9,0,7.4
			c-1.1,0.6-2.2,1.3-3.3,1.9C155.3,320.9,155.3,318.5,155.3,316L155.3,316z">
	    <animate attributeName="opacity" values="1;.4;1" dur="0.7s" keyTimes="0;0.5;1" repeatCount="indefinite" />
	</path>
	<path fill-rule="evenodd" clip-rule="evenodd" fill="#31A2CC" d="M161.5,312.4c1.1-0.6,2.2-1.3,3.3-1.9c0,2.5,0,4.9,0,7.4
			c-1.1,0.6-2.2,1.3-3.3,1.9C161.5,317.3,161.5,314.9,161.5,312.4L161.5,312.4z">
	    <animate attributeName="opacity" values="1;.4;1" dur="1.2s" keyTimes="0;0.3;1" repeatCount="indefinite" />
	</path>
	<path fill-rule="evenodd" clip-rule="evenodd" fill="#31A2CC" d="M167.8,308.8c1.1-0.6,2.2-1.3,3.3-1.9c0,2.5,0,4.9,0,7.4
			c-1.1,0.6-2.2,1.3-3.3,1.9C167.8,313.7,167.8,311.3,167.8,308.8L167.8,308.8z">
	    <animate attributeName="opacity" values="1;.4;1" dur="0.9s" keyTimes="0;0.6;1" repeatCount="indefinite" />
	</path>
	<path fill-rule="evenodd" clip-rule="evenodd" fill="#31A2CC" d="M174.1,305.2c1.1-0.6,2.2-1.3,3.3-1.9c0,2.5,0,4.9,0,7.4
			c-1.1,0.6-2.2,1.3-3.3,1.9C174.1,310.1,174.1,307.6,174.1,305.2L174.1,305.2z">
	    <animate attributeName="opacity" values="1;.4;1" dur="1.1s" keyTimes="0;0.4;1" repeatCount="indefinite" />
	</path>
	<path fill-rule="evenodd" clip-rule="evenodd" fill="#31A2CC" d="M180.3,301.6c1.1-0.6,2.2-1.3,3.3-1.9c0,2.5,0,4.9,0,7.4
			c-1.1,0.6-2.2,1.3-3.3,1.9C180.3,306.5,180.3,304,180.3,301.6L180.3,301.6z">
	    <animate attributeName="opacity" values="1;.4;1" dur="0.8s" keyTimes="0;0.7;1" repeatCount="indefinite" />
	</path>
	<path fill-rule="evenodd" clip-rule="evenodd" fill="#31A2CC" d="M186.6,297.9c1.1-0.6,2.2-1.3,3.3-1.9c0,2.5,0,4.9,0,7.4
			c-1.1,0.6-2.2,1.3-3.3,1.9C186.6,302.9,186.6,300.4,186.6,297.9L186.6,297.9z">
	    <animate attributeName="opacity" values="1;.4;1" dur="1.3s" keyTimes="0;0.5;1" repeatCount="indefinite" />
	</path>
	<path fill-rule="evenodd" clip-rule="evenodd" fill="#31A2CC" d="M192.9,294.3c1.1-0.6,2.2-1.3,3.3-1.9c0,2.5,0,4.9,0,7.4
			c-1.1,0.6-2.2,1.3-3.3,1.9C192.9,299.3,192.9,296.8,192.9,294.3L192.9,294.3z">
	    <animate attributeName="opacity" values="1;.4;1" dur="0.6s" keyTimes="0;0.4;1" repeatCount="indefinite" />
	</path>
	<path fill-rule="evenodd" clip-rule="evenodd" fill="#31A2CC" d="M199.1,290.7c1.1-0.6,2.2-1.3,3.3-1.9c0,2.5,0,4.9,0,7.4
			c-1.1,0.6-2.2,1.3-3.3,1.9C199.1,295.6,199.1,293.2,199.1,290.7L199.1,290.7z">
	    <animate attributeName="opacity" values="1;.4;1" dur="1.0s" keyTimes="0;0.6;1" repeatCount="indefinite" />
	</path>
	<path fill-rule="evenodd" clip-rule="evenodd" fill="#31A2CC" d="M205.4,287.1c1.1-0.6,2.2-1.3,3.3-1.9c0,2.5,0,4.9,0,7.4
			c-1.1,0.6-2.2,1.3-3.3,1.9C205.4,292,205.4,289.6,205.4,287.1L205.4,287.1z">
	    <animate attributeName="opacity" values="1;.4;1" dur="1.4s" keyTimes="0;0.3;1" repeatCount="indefinite" />
	</path>
	<path fill-rule="evenodd" clip-rule="evenodd" fill="#31A2CC" d="M211.6,283.5c1.1-0.6,2.2-1.3,3.3-1.9c0,2.5,0,4.9,0,7.4
			c-1.1,0.6-2.2,1.3-3.3,1.9C211.6,288.4,211.6,285.9,211.6,283.5L211.6,283.5z">
	    <animate attributeName="opacity" values="1;.4;1" dur="0.8s" keyTimes="0;0.5;1" repeatCount="indefinite" />
	</path>
	<path fill-rule="evenodd" clip-rule="evenodd" fill="#31A2CC" d="M217.9,279.9c1.1-0.6,2.2-1.3,3.3-1.9c0,2.5,0,4.9,0,7.4
			c-1.1,0.6-2.2,1.3-3.3,1.9C217.9,284.8,217.9,282.3,217.9,279.9L217.9,279.9z">
	    <animate attributeName="opacity" values="1;.4;1" dur="1.1s" keyTimes="0;0.7;1" repeatCount="indefinite" />
	</path>
	<path fill-rule="evenodd" clip-rule="evenodd" fill="#31A2CC" d="M149,319.6c1.1-0.6,2.2-1.3,3.3-1.9c0,2.5,0,4.9,0,7.4
			c-1.1,0.6-2.2,1.3-3.3,1.9C149,324.6,149,322.1,149,319.6z">
	    <animate attributeName="opacity" values="1;.4;1" dur="0.9s" keyTimes="0;0.4;1" repeatCount="indefinite" />
	</path>
	<path fill-rule="evenodd" clip-rule="evenodd" fill="#97BEE6" d="M227.4,263.2c9.4-5.5,18.9-10.9,28.3-16.4c0,3.1,0,6.2,0,9.3
		c0,3.1,0,6.2,0,9.3c-9.4,5.5-18.9,10.9-28.3,16.4c0-3.1,0-6.2,0-9.3C227.4,269.4,227.4,266.3,227.4,263.2z"/>
	<path fill-rule="evenodd" clip-rule="evenodd" fill="#000000" d="M146.5,351.4c19.3-11.1,38.6-22.3,57.8-33.4
		c19.3-11.1,38.6-22.3,57.9-33.4c0,5.7,0,11.3,0,17c0,5.7,0,11.3,0,17c-19.3,11.1-38.6,22.3-57.9,33.4
		c-19.3,11.1-38.6,22.3-57.8,33.4c0-5.7,0-11.3,0-17C146.5,362.7,146.5,357.1,146.5,351.4z"/>
	<path fill-rule="evenodd" clip-rule="evenodd" fill="#337700" d="M262.3,311.8c-19.3,11.1-38.6,22.3-57.9,33.4
		c-19.3,11.1-38.6,22.3-57.8,33.4c0,2.2,0,4.5,0,6.7c19.3-11.1,38.6-22.3,57.8-33.4c19.3-11.1,38.6-22.3,57.9-33.4
		C262.3,316.3,262.3,314.1,262.3,311.8z"/>
	<path fill-rule="evenodd" clip-rule="evenodd" fill="#E0A8CD" d="M155.3,350.6c1.1-0.6,2.2-1.3,3.3-1.9c0,2.5,0,4.9,0,7.4
			c-1.1,0.6-2.2,1.3-3.3,1.9C155.3,355.6,155.3,353.1,155.3,350.6L155.3,350.6z">
	    <animate attributeName="opacity" values="1;.4;1" dur="0.7s" keyTimes="0;0.5;1" repeatCount="indefinite" />
	</path>
	<path fill-rule="evenodd" clip-rule="evenodd" fill="#E0A8CD" d="M161.5,347c1.1-0.6,2.2-1.3,3.3-1.9
			c0,2.5,0,4.9,0,7.4c-1.1,0.6-2.2,1.3-3.3,1.9C161.5,352,161.5,349.5,161.5,347L161.5,347z">
	    <animate attributeName="opacity" values="1;.4;1" dur="1.2s" keyTimes="0;0.3;1" repeatCount="indefinite" />
	</path>
	<path fill-rule="evenodd" clip-rule="evenodd" fill="#E0A8CD" d="M167.8,343.4c1.1-0.6,2.2-1.3,3.3-1.9c0,2.5,0,4.9,0,7.4
			c-1.1,0.6-2.2,1.3-3.3,1.9C167.8,348.3,167.8,345.9,167.8,343.4L167.8,343.4z">
	    <animate attributeName="opacity" values="1;.4;1" dur="0.9s" keyTimes="0;0.6;1" repeatCount="indefinite" />
	</path>
	<path fill-rule="evenodd" clip-rule="evenodd" fill="#E0A8CD" d="M174.1,339.8c1.1-0.6,2.2-1.3,3.3-1.9c0,2.5,0,4.9,0,7.4
			c-1.1,0.6-2.2,1.3-3.3,1.9C174.1,344.7,174.1,342.3,174.1,339.8L174.1,339.8z">
	    <animate attributeName="opacity" values="1;.4;1" dur="1.1s" keyTimes="0;0.4;1" repeatCount="indefinite" />
	</path>
	<path fill-rule="evenodd" clip-rule="evenodd" fill="#E0A8CD" d="M180.3,336.2c1.1-0.6,2.2-1.3,3.3-1.9c0,2.5,0,4.9,0,7.4
			c-1.1,0.6-2.2,1.3-3.3,1.9C180.3,341.1,180.3,338.7,180.3,336.2L180.3,336.2z">
	    <animate attributeName="opacity" values="1;.4;1" dur="0.8s" keyTimes="0;0.7;1" repeatCount="indefinite" />
	</path>
	<path fill-rule="evenodd" clip-rule="evenodd" fill="#E0A8CD" d="M186.6,332.6c1.1-0.6,2.2-1.3,3.3-1.9c0,2.5,0,4.9,0,7.4
			c-1.1,0.6-2.2,1.3-3.3,1.9C186.6,337.5,186.6,335,186.6,332.6L186.6,332.6z">
	    <animate attributeName="opacity" values="1;.4;1" dur="1.3s" keyTimes="0;0.5;1" repeatCount="indefinite" />
	</path>
	<path fill-rule="evenodd" clip-rule="evenodd" fill="#E0A8CD" d="M192.9,329c1.1-0.6,2.2-1.3,3.3-1.9c0,2.5,0,4.9,0,7.4
			c-1.1,0.6-2.2,1.3-3.3,1.9C192.9,333.9,192.9,331.4,192.9,329L192.9,329z">
	    <animate attributeName="opacity" values="1;.4;1" dur="0.6s" keyTimes="0;0.4;1" repeatCount="indefinite" />
	</path>
	<path fill-rule="evenodd" clip-rule="evenodd" fill="#E0A8CD" d="M199.1,325.3c1.1-0.6,2.2-1.3,3.3-1.9c0,2.5,0,4.9,0,7.4
			c-1.1,0.6-2.2,1.3-3.3,1.9C199.1,330.3,199.1,327.8,199.1,325.3L199.1,325.3z">
	    <animate attributeName="opacity" values="1;.4;1" dur="1.0s" keyTimes="0;0.6;1" repeatCount="indefinite" />
	</path>
	<path fill-rule="evenodd" clip-rule="evenodd" fill="#E0A8CD" d="M205.4,321.7c1.1-0.6,2.2-1.3,3.3-1.9c0,2.5,0,4.9,0,7.4
			c-1.1,0.6-2.2,1.3-3.3,1.9C205.4,326.7,205.4,324.2,205.4,321.7L205.4,321.7z">
	    <animate attributeName="opacity" values="1;.4;1" dur="1.4s" keyTimes="0;0.3;1" repeatCount="indefinite" />
	</path>
	<path fill-rule="evenodd" clip-rule="evenodd" fill="#E0A8CD" d="M211.6,318.1c1.1-0.6,2.2-1.3,3.3-1.9c0,2.5,0,4.9,0,7.4
			c-1.1,0.6-2.2,1.3-3.3,1.9C211.6,323,211.6,320.6,211.6,318.1L211.6,318.1z">
	    <animate attributeName="opacity" values="1;.4;1" dur="0.8s" keyTimes="0;0.5;1" repeatCount="indefinite" />
	</path>
	<path fill-rule="evenodd" clip-rule="evenodd" fill="#E0A8CD" d="M217.9,314.5c1.1-0.6,2.2-1.3,3.3-1.9c0,2.5,0,4.9,0,7.4
			c-1.1,0.6-2.2,1.3-3.3,1.9C217.9,319.4,217.9,317,217.9,314.5L217.9,314.5z">
	    <animate attributeName="opacity" values="1;.4;1" dur="1.1s" keyTimes="0;0.7;1" repeatCount="indefinite" />
	</path>
	<path fill-rule="evenodd" clip-rule="evenodd" fill="#E0A8CD" d="M149,354.3c1.1-0.6,2.2-1.3,3.3-1.9c0,2.5,0,4.9,0,7.4
			c-1.1,0.6-2.2,1.3-3.3,1.9C149,359.2,149,356.7,149,354.3z">
	    <animate attributeName="opacity" values="1;.4;1" dur="0.9s" keyTimes="0;0.4;1" repeatCount="indefinite" />
	</path>

	<path fill-rule="evenodd" clip-rule="evenodd" fill="#31A2CC" d="M155.3,361.8c1.1-0.6,2.2-1.3,3.3-1.9c0,2.5,0,4.9,0,7.4
			c-1.1,0.6-2.2,1.3-3.3,1.9C155.3,366.8,155.3,364.3,155.3,361.8L155.3,361.8z">
	    <animate attributeName="opacity" values="1;.4;1" dur="0.7s" keyTimes="0;0.5;1" repeatCount="indefinite" />
	</path>
	<path fill-rule="evenodd" clip-rule="evenodd" fill="#31A2CC" d="M161.5,358.2c1.1-0.6,2.2-1.3,3.3-1.9
			c0,2.5,0,4.9,0,7.4c-1.1,0.6-2.2,1.3-3.3,1.9C161.5,363.1,161.5,360.7,161.5,358.2L161.5,358.2z">
	    <animate attributeName="opacity" values="1;.4;1" dur="1.2s" keyTimes="0;0.3;1" repeatCount="indefinite" />
	</path>
	<path fill-rule="evenodd" clip-rule="evenodd" fill="#31A2CC" d="M167.8,354.6c1.1-0.6,2.2-1.3,3.3-1.9c0,2.5,0,4.9,0,7.4
			c-1.1,0.6-2.2,1.3-3.3,1.9C167.8,359.5,167.8,357.1,167.8,354.6L167.8,354.6z">
	    <animate attributeName="opacity" values="1;.4;1" dur="0.9s" keyTimes="0;0.6;1" repeatCount="indefinite" />
	</path>
	<path fill-rule="evenodd" clip-rule="evenodd" fill="#31A2CC" d="M174.1,351c1.1-0.6,2.2-1.3,3.3-1.9c0,2.5,0,4.9,0,7.4
			c-1.1,0.6-2.2,1.3-3.3,1.9C174.1,355.9,174.1,353.4,174.1,351L174.1,351z">
	    <animate attributeName="opacity" values="1;.4;1" dur="1.1s" keyTimes="0;0.4;1" repeatCount="indefinite" />
	</path>
	<path fill-rule="evenodd" clip-rule="evenodd" fill="#31A2CC" d="M180.3,347.4c1.1-0.6,2.2-1.3,3.3-1.9c0,2.5,0,4.9,0,7.4
			c-1.1,0.6-2.2,1.3-3.3,1.9C180.3,352.3,180.3,349.8,180.3,347.4L180.3,347.4z">
	    <animate attributeName="opacity" values="1;.4;1" dur="0.8s" keyTimes="0;0.7;1" repeatCount="indefinite" />
	</path>
	<path fill-rule="evenodd" clip-rule="evenodd" fill="#31A2CC" d="M186.6,343.7c1.1-0.6,2.2-1.3,3.3-1.9c0,2.5,0,4.9,0,7.4
			c-1.1,0.6-2.2,1.3-3.3,1.9C186.6,348.7,186.6,346.2,186.6,343.7L186.6,343.7z">
	    <animate attributeName="opacity" values="1;.4;1" dur="1.3s" keyTimes="0;0.5;1" repeatCount="indefinite" />
	</path>
	<path fill-rule="evenodd" clip-rule="evenodd" fill="#31A2CC" d="M192.9,340.1c1.1-0.6,2.2-1.3,3.3-1.9c0,2.5,0,4.9,0,7.4
			c-1.1,0.6-2.2,1.3-3.3,1.9C192.9,345.1,192.9,342.6,192.9,340.1L192.9,340.1z">
	    <animate attributeName="opacity" values="1;.4;1" dur="0.6s" keyTimes="0;0.4;1" repeatCount="indefinite" />
	</path>
	<path fill-rule="evenodd" clip-rule="evenodd" fill="#31A2CC" d="M199.1,336.5c1.1-0.6,2.2-1.3,3.3-1.9c0,2.5,0,4.9,0,7.4
			c-1.1,0.6-2.2,1.3-3.3,1.9C199.1,341.4,199.1,339,199.1,336.5L199.1,336.5z">
	    <animate attributeName="opacity" values="1;.4;1" dur="1.0s" keyTimes="0;0.6;1" repeatCount="indefinite" />
	</path>
	<path fill-rule="evenodd" clip-rule="evenodd" fill="#31A2CC" d="M205.4,332.9c1.1-0.6,2.2-1.3,3.3-1.9c0,2.5,0,4.9,0,7.4
			c-1.1,0.6-2.2,1.3-3.3,1.9C205.4,337.8,205.4,335.4,205.4,332.9L205.4,332.9z">
	    <animate attributeName="opacity" values="1;.4;1" dur="1.4s" keyTimes="0;0.3;1" repeatCount="indefinite" />
	</path>
	<path fill-rule="evenodd" clip-rule="evenodd" fill="#31A2CC" d="M211.6,329.3c1.1-0.6,2.2-1.3,3.3-1.9c0,2.5,0,4.9,0,7.4
			c-1.1,0.6-2.2,1.3-3.3,1.9C211.6,334.2,211.6,331.8,211.6,329.3L211.6,329.3z">
	    <animate attributeName="opacity" values="1;.4;1" dur="0.8s" keyTimes="0;0.5;1" repeatCount="indefinite" />
	</path>
	<path fill-rule="evenodd" clip-rule="evenodd" fill="#31A2CC" d="M217.9,325.7c1.1-0.6,2.2-1.3,3.3-1.9c0,2.5,0,4.9,0,7.4
			c-1.1,0.6-2.2,1.3-3.3,1.9C217.9,330.6,217.9,328.1,217.9,325.7L217.9,325.7z">
	    <animate attributeName="opacity" values="1;.4;1" dur="1.1s" keyTimes="0;0.7;1" repeatCount="indefinite" />
	</path>
	<path fill-rule="evenodd" clip-rule="evenodd" fill="#31A2CC" d="M149,365.4c1.1-0.6,2.2-1.3,3.3-1.9c0,2.5,0,4.9,0,7.4
			c-1.1,0.6-2.2,1.3-3.3,1.9C149,370.4,149,367.9,149,365.4z">
	    <animate attributeName="opacity" values="1;.4;1" dur="0.9s" keyTimes="0;0.4;1" repeatCount="indefinite" />
	</path>
	<path fill-rule="evenodd" clip-rule="evenodd" fill="#8BA631" d="M227.4,309c9.4-5.5,18.9-10.9,28.3-16.4c0,3.1,0,6.2,0,9.3
		c0,3.1,0,6.2,0,9.3c-9.4,5.5-18.9,10.9-28.3,16.4c0-3.1,0-6.2,0-9.3C227.4,315.2,227.4,312.1,227.4,309z"/>
	<path fill-rule="evenodd" clip-rule="evenodd" fill="#000000" d="M146.5,397.2c19.3-11.1,38.6-22.3,57.8-33.4
		c19.3-11.1,38.6-22.3,57.9-33.4c0,5.7,0,11.3,0,17c0,5.7,0,11.3,0,17c-19.3,11.1-38.6,22.3-57.9,33.4
		c-19.3,11.1-38.6,22.3-57.8,33.4c0-5.7,0-11.3,0-17C146.5,408.6,146.5,402.9,146.5,397.2z"/>
	<path fill-rule="evenodd" clip-rule="evenodd" fill="#337700" d="M262.3,357.6c-19.3,11.1-38.6,22.3-57.9,33.4
		c-19.3,11.1-38.6,22.3-57.8,33.4c0,2.2,0,4.5,0,6.7c19.3-11.1,38.6-22.3,57.8-33.4c19.3-11.1,38.6-22.3,57.9-33.4
		C262.3,362.1,262.3,359.9,262.3,357.6z"/>
	
	<path fill-rule="evenodd" clip-rule="evenodd" fill="#F3AE00" d="M155.3,396.5c1.1-0.6,2.2-1.3,3.3-1.9c0,2.5,0,4.9,0,7.4 c-1.1,0.6-2.2,1.3-3.3,1.9C155.3,401.4,155.3,398.9,155.3,396.5L155.3,396.5z">
	    <animate attributeName="opacity" values="1;.4;1" dur="0.7s" keyTimes="0;0.5;1" repeatCount="indefinite" />
	</path>
	<path fill-rule="evenodd" clip-rule="evenodd" fill="#F3AE00" d="M161.5,392.8c1.1-0.6,2.2-1.3,3.3-1.9 c0,2.5,0,4.9,0,7.4c-1.1,0.6-2.2,1.3-3.3,1.9C161.5,397.8,161.5,395.3,161.5,392.8L161.5,392.8z">
	    <animate attributeName="opacity" values="1;.4;1" dur="1.1s" keyTimes="0;0.6;1" repeatCount="indefinite" />
	</path>
	<path fill-rule="evenodd" clip-rule="evenodd" fill="#F3AE00" d="M167.8,389.2c1.1-0.6,2.2-1.3,3.3-1.9 c0,2.5,0,4.9,0,7.4c-1.1,0.6-2.2,1.3-3.3,1.9C167.8,394.2,167.8,391.7,167.8,389.2L167.8,389.2z">
	    <animate attributeName="opacity" values="1;.4;1" dur="0.9s" keyTimes="0;0.4;1" repeatCount="indefinite" />
	</path>
	<path fill-rule="evenodd" clip-rule="evenodd" fill="#F3AE00" d="M174.1,385.6c1.1-0.6,2.2-1.3,3.3-1.9 c0,2.5,0,4.9,0,7.4c-1.1,0.6-2.2,1.3-3.3,1.9C174.1,390.5,174.1,388.1,174.1,385.6L174.1,385.6z">
	    <animate attributeName="opacity" values="1;.4;1" dur="1.3s" keyTimes="0;0.3;1" repeatCount="indefinite" />
	</path>
	<path fill-rule="evenodd" clip-rule="evenodd" fill="#F3AE00" d="M180.3,382c1.1-0.6,2.2-1.3,3.3-1.9 c0,2.5,0,4.9,0,7.4c-1.1,0.6-2.2,1.3-3.3,1.9C180.3,386.9,180.3,384.5,180.3,382L180.3,382z">
	    <animate attributeName="opacity" values="1;.4;1" dur="0.8s" keyTimes="0;0.7;1" repeatCount="indefinite" />
	</path>
	<path fill-rule="evenodd" clip-rule="evenodd" fill="#F3AE00" d="M186.6,378.4c1.1-0.6,2.2-1.3,3.3-1.9 c0,2.5,0,4.9,0,7.4c-1.1,0.6-2.2,1.3-3.3,1.9C186.6,383.3,186.6,380.8,186.6,378.4L186.6,378.4z">
	    <animate attributeName="opacity" values="1;.4;1" dur="1.2s" keyTimes="0;0.5;1" repeatCount="indefinite" />
	</path>
	<path fill-rule="evenodd" clip-rule="evenodd" fill="#F3AE00" d="M192.9,374.8c1.1-0.6,2.2-1.3,3.3-1.9 c0,2.5,0,4.9,0,7.4c-1.1,0.6-2.2,1.3-3.3,1.9C192.9,379.7,192.9,377.2,192.9,374.8L192.9,374.8z">
	    <animate attributeName="opacity" values="1;.4;1" dur="1.0s" keyTimes="0;0.6;1" repeatCount="indefinite" />
	</path>
	<path fill-rule="evenodd" clip-rule="evenodd" fill="#F3AE00" d="M199.1,371.1c1.1-0.6,2.2-1.3,3.3-1.9 c0,2.5,0,4.9,0,7.4c-1.1,0.6-2.2,1.3-3.3,1.9C199.1,376.1,199.1,373.6,199.1,371.1L199.1,371.1z">
	    <animate attributeName="opacity" values="1;.4;1" dur="0.6s" keyTimes="0;0.4;1" repeatCount="indefinite" />
	</path>
	<path fill-rule="evenodd" clip-rule="evenodd" fill="#F3AE00" d="M205.4,367.5c1.1-0.6,2.2-1.3,3.3-1.9 c0,2.5,0,4.9,0,7.4c-1.1,0.6-2.2,1.3-3.3,1.9C205.4,372.5,205.4,370,205.4,367.5L205.4,367.5z">
	    <animate attributeName="opacity" values="1;.4;1" dur="1.4s" keyTimes="0;0.3;1" repeatCount="indefinite" />
	</path>
	<path fill-rule="evenodd" clip-rule="evenodd" fill="#F3AE00" d="M211.6,363.9c1.1-0.6,2.2-1.3,3.3-1.9 c0,2.5,0,4.9,0,7.4c-1.1,0.6-2.2,1.3-3.3,1.9C211.6,368.8,211.6,366.4,211.6,363.9L211.6,363.9z">
	    <animate attributeName="opacity" values="1;.4;1" dur="0.7s" keyTimes="0;0.5;1" repeatCount="indefinite" />
	</path>
	<path fill-rule="evenodd" clip-rule="evenodd" fill="#F3AE00" d="M217.9,360.3c1.1-0.6,2.2-1.3,3.3-1.9 c0,2.5,0,4.9,0,7.4c-1.1,0.6-2.2,1.3-3.3,1.9C217.9,365.2,217.9,362.8,217.9,360.3L217.9,360.3z">
	    <animate attributeName="opacity" values="1;.4;1" dur="1.1s" keyTimes="0;0.6;1" repeatCount="indefinite" />
	</path>

	<path fill-rule="evenodd" clip-rule="evenodd" fill="#31A2CC" d="M155.3,407.6c1.1-0.6,2.2-1.3,3.3-1.9c0,2.5,0,4.9,0,7.4
			c-1.1,0.6-2.2-1.3-3.3,1.9C155.3,412.6,155.3,410.1,155.3,407.6L155.3,407.6z">
	    <animate attributeName="opacity" values="1;.4;1" dur="0.7s" keyTimes="0;0.5;1" repeatCount="indefinite" />
	</path>
	<path fill-rule="evenodd" clip-rule="evenodd" fill="#31A2CC" d="M161.5,404c1.1-0.6,2.2-1.3,3.3-1.9
			c0,2.5,0,4.9,0,7.4c-1.1,0.6-2.2-1.3-3.3,1.9C161.5,408.9,161.5,406.5,161.5,404L161.5,404z">
	    <animate attributeName="opacity" values="1;.4;1" dur="1.2s" keyTimes="0;0.3;1" repeatCount="indefinite" />
	</path>
	<path fill-rule="evenodd" clip-rule="evenodd" fill="#31A2CC" d="M167.8,400.4c1.1-0.6,2.2-1.3,3.3-1.9c0,2.5,0,4.9,0,7.4
			c-1.1,0.6-2.2-1.3-3.3,1.9C167.8,405.3,167.8,402.9,167.8,400.4L167.8,400.4z">
	    <animate attributeName="opacity" values="1;.4;1" dur="0.9s" keyTimes="0;0.6;1" repeatCount="indefinite" />
	</path>
	<path fill-rule="evenodd" clip-rule="evenodd" fill="#31A2CC" d="M174.1,396.8c1.1-0.6,2.2-1.3,3.3-1.9c0,2.5,0,4.9,0,7.4
			c-1.1,0.6-2.2-1.3-3.3,1.9C174.1,401.7,174.1,399.2,174.1,396.8L174.1,396.8z">
	    <animate attributeName="opacity" values="1;.4;1" dur="1.1s" keyTimes="0;0.4;1" repeatCount="indefinite" />
	</path>
	<path fill-rule="evenodd" clip-rule="evenodd" fill="#31A2CC" d="M180.3,393.2c1.1-0.6,2.2-1.3,3.3-1.9c0,2.5,0,4.9,0,7.4
			c-1.1,0.6-2.2-1.3-3.3,1.9C180.3,398.1,180.3,395.6,180.3,393.2L180.3,393.2z">
	    <animate attributeName="opacity" values="1;.4;1" dur="0.8s" keyTimes="0;0.7;1" repeatCount="indefinite" />
	</path>
	<path fill-rule="evenodd" clip-rule="evenodd" fill="#31A2CC" d="M186.6,389.6c1.1-0.6,2.2-1.3,3.3-1.9c0,2.5,0,4.9,0,7.4
			c-1.1,0.6-2.2-1.3-3.3,1.9C186.6,394.5,186.6,392,186.6,389.6L186.6,389.6z">
	    <animate attributeName="opacity" values="1;.4;1" dur="1.3s" keyTimes="0;0.5;1" repeatCount="indefinite" />
	</path>
	<path fill-rule="evenodd" clip-rule="evenodd" fill="#31A2CC" d="M192.9,385.9c1.1-0.6,2.2-1.3,3.3-1.9c0,2.5,0,4.9,0,7.4
			c-1.1,0.6-2.2-1.3-3.3,1.9C192.9,390.9,192.9,388.4,192.9,385.9L192.9,385.9z">
	    <animate attributeName="opacity" values="1;.4;1" dur="0.6s" keyTimes="0;0.4;1" repeatCount="indefinite" />
	</path>
	<path fill-rule="evenodd" clip-rule="evenodd" fill="#31A2CC" d="M199.1,382.3c1.1-0.6,2.2-1.3,3.3-1.9c0,2.5,0,4.9,0,7.4
			c-1.1,0.6-2.2-1.3-3.3,1.9C199.1,387.3,199.1,384.8,199.1,382.3L199.1,382.3z">
	    <animate attributeName="opacity" values="1;.4;1" dur="1.0s" keyTimes="0;0.6;1" repeatCount="indefinite" />
	</path>
	<path fill-rule="evenodd" clip-rule="evenodd" fill="#31A2CC" d="M205.4,378.7c1.1-0.6,2.2-1.3,3.3-1.9c0,2.5,0,4.9,0,7.4
			c-1.1,0.6-2.2-1.3-3.3,1.9C205.4,383.6,205.4,381.2,205.4,378.7L205.4,378.7z">
	    <animate attributeName="opacity" values="1;.4;1" dur="1.4s" keyTimes="0;0.3;1" repeatCount="indefinite" />
	</path>
	<path fill-rule="evenodd" clip-rule="evenodd" fill="#31A2CC" d="M211.6,375.1c1.1-0.6,2.2-1.3,3.3-1.9c0,2.5,0,4.9,0,7.4
			c-1.1,0.6-2.2-1.3-3.3,1.9C211.6,380,211.6,377.6,211.6,375.1L211.6,375.1z">
	    <animate attributeName="opacity" values="1;.4;1" dur="0.8s" keyTimes="0;0.5;1" repeatCount="indefinite" />
	</path>
	<path fill-rule="evenodd" clip-rule="evenodd" fill="#31A2CC" d="M217.9,371.5c1.1-0.6,2.2-1.3,3.3-1.9c0,2.5,0,4.9,0,7.4
			c-1.1,0.6-2.2-1.3-3.3,1.9C217.9,376.4,217.9,373.9,217.9,371.5L217.9,371.5z">
	    <animate attributeName="opacity" values="1;.4;1" dur="1.1s" keyTimes="0;0.7;1" repeatCount="indefinite" />
	</path>
	<path fill-rule="evenodd" clip-rule="evenodd" fill="#31A2CC" d="M149,411.2c1.1-0.6,2.2-1.3,3.3-1.9c0,2.5,0,4.9,0,7.4
			c-1.1,0.6-2.2-1.3-3.3,1.9C149,416.2,149,413.7,149,411.2z">
	    <animate attributeName="opacity" values="1;.4;1" dur="0.9s" keyTimes="0;0.4;1" repeatCount="indefinite" />
	</path>

	<path fill-rule="evenodd" clip-rule="evenodd" fill="#D2DD77" d="M227.4,354.8c9.4-5.5,18.9-10.9,28.3-16.4c0,3.1,0,6.2,0,9.3
		c0,3.1,0,6.2,0,9.3c-9.4,5.5-18.9,10.9-28.3,16.4c0-3.1,0-6.2,0-9.3C227.4,361,227.4,357.9,227.4,354.8z"/>
	<path fill-rule="evenodd" clip-rule="evenodd" fill="#000000" d="M146.5,443c19.3-11.1,38.6-22.3,57.8-33.4
		c19.3-11.1,38.6-22.3,57.9-33.4c0,5.7,0,11.3,0,17c0,5.7,0,11.3,0,17c-19.3,11.1-38.6,22.3-57.9,33.4
		c-19.3,11.1-38.6,22.3-57.8,33.4c0-5.7,0-11.3,0-17C146.5,454.4,146.5,448.7,146.5,443z"/>
	<path fill-rule="evenodd" clip-rule="evenodd" fill="#337700" d="M262.3,403.4c-19.3,11.1-38.6,22.3-57.9,33.4
		c-19.3,11.1-38.6,22.3-57.8,33.4c0,2.2,0,4.5,0,6.7c19.3-11.1,38.6-22.3,57.8-33.4c19.3-11.1,38.6-22.3,57.9-33.4
		C262.3,407.9,262.3,405.7,262.3,403.4z"/>
	<path fill-rule="evenodd" clip-rule="evenodd" fill="#F3AE00" d="M155.3,442.3c1.1-0.6,2.2-1.3,3.3-1.9c0,2.5,0,4.9,0,7.4
			c-1.1,0.6-2.2,1.3-3.3,1.9C155.3,447.2,155.3,444.7,155.3,442.3L155.3,442.3z">
	    <animate attributeName="opacity" values="1;.4;1" dur="0.7s" keyTimes="0;0.5;1" repeatCount="indefinite" />
	</path>
	<path fill-rule="evenodd" clip-rule="evenodd" fill="#F3AE00" d="M161.5,438.6c1.1-0.6,2.2-1.3,3.3-1.9c0,2.5,0,4.9,0,7.4
			c-1.1,0.6-2.2,1.3-3.3,1.9C161.5,443.6,161.5,441.1,161.5,438.6L161.5,438.6z">
	    <animate attributeName="opacity" values="1;.4;1" dur="1.2s" keyTimes="0;0.3;1" repeatCount="indefinite" />
	</path>
	<path fill-rule="evenodd" clip-rule="evenodd" fill="#F3AE00" d="M167.8,435c1.1-0.6,2.2-1.3,3.3-1.9c0,2.5,0,4.9,0,7.4
			c-1.1,0.6-2.2,1.3-3.3,1.9C167.8,440,167.8,437.5,167.8,435L167.8,435z">
	    <animate attributeName="opacity" values="1;.4;1" dur="0.9s" keyTimes="0;0.6;1" repeatCount="indefinite" />
	</path>
	<path fill-rule="evenodd" clip-rule="evenodd" fill="#F3AE00" d="M174.1,431.4c1.1-0.6,2.2-1.3,3.3-1.9c0,2.5,0,4.9,0,7.4
			c-1.1,0.6-2.2,1.3-3.3,1.9C174.1,436.3,174.1,433.9,174.1,431.4L174.1,431.4z">
	    <animate attributeName="opacity" values="1;.4;1" dur="1.1s" keyTimes="0;0.4;1" repeatCount="indefinite" />
	</path>
	<path fill-rule="evenodd" clip-rule="evenodd" fill="#F3AE00" d="M180.3,427.8c1.1-0.6,2.2-1.3,3.3-1.9c0,2.5,0,4.9,0,7.4
			c-1.1,0.6-2.2,1.3-3.3,1.9C180.3,432.7,180.3,430.3,180.3,427.8L180.3,427.8z">
	    <animate attributeName="opacity" values="1;.4;1" dur="0.8s" keyTimes="0;0.7;1" repeatCount="indefinite" />
	</path>
	<path fill-rule="evenodd" clip-rule="evenodd" fill="#F3AE00" d="M186.6,424.2c1.1-0.6,2.2-1.3,3.3-1.9c0,2.5,0,4.9,0,7.4
			c-1.1,0.6-2.2,1.3-3.3,1.9C186.6,429.1,186.6,426.6,186.6,424.2L186.6,424.2z">
	    <animate attributeName="opacity" values="1;.4;1" dur="1.3s" keyTimes="0;0.5;1" repeatCount="indefinite" />
	</path>
	<path fill-rule="evenodd" clip-rule="evenodd" fill="#F3AE00" d="M192.9,420.6c1.1-0.6,2.2-1.3,3.3-1.9c0,2.5,0,4.9,0,7.4
			c-1.1,0.6-2.2,1.3-3.3,1.9C192.9,425.5,192.9,423,192.9,420.6L192.9,420.6z">
	    <animate attributeName="opacity" values="1;.4;1" dur="0.6s" keyTimes="0;0.4;1" repeatCount="indefinite" />
	</path>
	<path fill-rule="evenodd" clip-rule="evenodd" fill="#F3AE00" d="M199.1,417c1.1-0.6,2.2-1.3,3.3-1.9c0,2.5,0,4.9,0,7.4
			c-1.1,0.6-2.2,1.3-3.3,1.9C199.1,421.9,199.1,419.4,199.1,417L199.1,417z">
	    <animate attributeName="opacity" values="1;.4;1" dur="1.0s" keyTimes="0;0.6;1" repeatCount="indefinite" />
	</path>
	<path fill-rule="evenodd" clip-rule="evenodd" fill="#F3AE00" d="M205.4,413.3c1.1-0.6,2.2-1.3,3.3-1.9c0,2.5,0,4.9,0,7.4
			c-1.1,0.6-2.2,1.3-3.3,1.9C205.4,418.3,205.4,415.8,205.4,413.3L205.4,413.3z">
	    <animate attributeName="opacity" values="1;.4;1" dur="1.4s" keyTimes="0;0.3;1" repeatCount="indefinite" />
	</path>
	<path fill-rule="evenodd" clip-rule="evenodd" fill="#F3AE00" d="M211.6,409.7c1.1-0.6,2.2-1.3,3.3-1.9c0,2.5,0,4.9,0,7.4
			c-1.1,0.6-2.2,1.3-3.3,1.9C211.6,414.7,211.6,412.2,211.6,409.7L211.6,409.7z">
	    <animate attributeName="opacity" values="1;.4;1" dur="0.8s" keyTimes="0;0.5;1" repeatCount="indefinite" />
	</path>
	<path fill-rule="evenodd" clip-rule="evenodd" fill="#F3AE00" d="M217.9,406.1c1.1-0.6,2.2-1.3,3.3-1.9c0,2.5,0,4.9,0,7.4
			c-1.1,0.6-2.2,1.3-3.3,1.9C217.9,411,217.9,408.6,217.9,406.1L217.9,406.1z">
	    <animate attributeName="opacity" values="1;.4;1" dur="1.1s" keyTimes="0;0.7;1" repeatCount="indefinite" />
	</path>
	<path fill-rule="evenodd" clip-rule="evenodd" fill="#F3AE00" d="M149,445.9c1.1-0.6,2.2-1.3,3.3-1.9c0,2.5,0,4.9,0,7.4
			c-1.1,0.6-2.2,1.3-3.3,1.9C149,450.8,149,448.3,149,445.9z">
	    <animate attributeName="opacity" values="1;.4;1" dur="0.9s" keyTimes="0;0.4;1" repeatCount="indefinite" />
	</path>
	<path fill-rule="evenodd" clip-rule="evenodd" fill="#31A2CC" d="M155.3,453.4c1.1-0.6,2.2-1.3,3.3-1.9c0,2.5,0,4.9,0,7.4
			c-1.1,0.6-2.2,1.3-3.3,1.9C155.3,458.4,155.3,455.9,155.3,453.4L155.3,453.4z">
	    <animate attributeName="opacity" values="1;.4;1" dur="0.7s" keyTimes="0;0.5;1" repeatCount="indefinite" />
	</path>
	<path fill-rule="evenodd" clip-rule="evenodd" fill="#31A2CC" d="M161.5,449.8c1.1-0.6,2.2-1.3,3.3-1.9c0,2.5,0,4.9,0,7.4
			c-1.1,0.6-2.2,1.3-3.3,1.9C161.5,454.8,161.5,452.3,161.5,449.8L161.5,449.8z">
	    <animate attributeName="opacity" values="1;.4;1" dur="1.2s" keyTimes="0;0.3;1" repeatCount="indefinite" />
	</path>
	<path fill-rule="evenodd" clip-rule="evenodd" fill="#31A2CC" d="M167.8,446.2c1.1-0.6,2.2-1.3,3.3-1.9c0,2.5,0,4.9,0,7.4
			c-1.1,0.6-2.2,1.3-3.3,1.9C167.8,451.1,167.8,448.7,167.8,446.2L167.8,446.2z">
	    <animate attributeName="opacity" values="1;.4;1" dur="0.9s" keyTimes="0;0.6;1" repeatCount="indefinite" />
	</path>
	<path fill-rule="evenodd" clip-rule="evenodd" fill="#31A2CC" d="M174.1,442.6c1.1-0.6,2.2-1.3,3.3-1.9c0,2.5,0,4.9,0,7.4
			c-1.1,0.6-2.2,1.3-3.3,1.9C174.1,447.5,174.1,445.1,174.1,442.6L174.1,442.6z">
	    <animate attributeName="opacity" values="1;.4;1" dur="1.1s" keyTimes="0;0.4;1" repeatCount="indefinite" />
	</path>
	<path fill-rule="evenodd" clip-rule="evenodd" fill="#31A2CC" d="M180.3,439c1.1-0.6,2.2-1.3,3.3-1.9c0,2.5,0,4.9,0,7.4
			c-1.1,0.6-2.2,1.3-3.3,1.9C180.3,443.9,180.3,441.4,180.3,439L180.3,439z">
	    <animate attributeName="opacity" values="1;.4;1" dur="0.8s" keyTimes="0;0.7;1" repeatCount="indefinite" />
	</path>
	<path fill-rule="evenodd" clip-rule="evenodd" fill="#31A2CC" d="M186.6,435.4c1.1-0.6,2.2-1.3,3.3-1.9c0,2.5,0,4.9,0,7.4
			c-1.1,0.6-2.2,1.3-3.3,1.9C186.6,440.3,186.6,437.8,186.6,435.4L186.6,435.4z">
	    <animate attributeName="opacity" values="1;.4;1" dur="1.3s" keyTimes="0;0.5;1" repeatCount="indefinite" />
	</path>
	<path fill-rule="evenodd" clip-rule="evenodd" fill="#31A2CC" d="M192.9,431.7c1.1-0.6,2.2-1.3,3.3-1.9c0,2.5,0,4.9,0,7.4
			c-1.1,0.6-2.2,1.3-3.3,1.9C192.9,436.7,192.9,434.2,192.9,431.7L192.9,431.7z">
	    <animate attributeName="opacity" values="1;.4;1" dur="0.6s" keyTimes="0;0.4;1" repeatCount="indefinite" />
	</path>
	<path fill-rule="evenodd" clip-rule="evenodd" fill="#31A2CC" d="M199.1,428.1c1.1-0.6,2.2-1.3,3.3-1.9c0,2.5,0,4.9,0,7.4
			c-1.1,0.6-2.2,1.3-3.3,1.9C199.1,433.1,199.1,430.6,199.1,428.1L199.1,428.1z">
	    <animate attributeName="opacity" values="1;.4;1" dur="1.0s" keyTimes="0;0.6;1" repeatCount="indefinite" />
	</path>
	<path fill-rule="evenodd" clip-rule="evenodd" fill="#31A2CC" d="M205.4,424.5c1.1-0.6,2.2-1.3,3.3-1.9c0,2.5,0,4.9,0,7.4
			c-1.1,0.6-2.2,1.3-3.3,1.9C205.4,429.4,205.4,427,205.4,424.5L205.4,424.5z">
	    <animate attributeName="opacity" values="1;.4;1" dur="1.4s" keyTimes="0;0.3;1" repeatCount="indefinite" />
	</path>
	<path fill-rule="evenodd" clip-rule="evenodd" fill="#31A2CC" d="M211.6,420.9c1.1-0.6,2.2-1.3,3.3-1.9c0,2.5,0,4.9,0,7.4
			c-1.1,0.6-2.2,1.3-3.3,1.9C211.6,425.8,211.6,423.4,211.6,420.9L211.6,420.9z">
	    <animate attributeName="opacity" values="1;.4;1" dur="0.8s" keyTimes="0;0.5;1" repeatCount="indefinite" />
	</path>
	<path fill-rule="evenodd" clip-rule="evenodd" fill="#31A2CC" d="M217.9,417.3c1.1-0.6,2.2-1.3,3.3-1.9c0,2.5,0,4.9,0,7.4
			c-1.1,0.6-2.2,1.3-3.3,1.9C217.9,422.2,217.9,419.7,217.9,417.3L217.9,417.3z">
	    <animate attributeName="opacity" values="1;.4;1" dur="1.1s" keyTimes="0;0.7;1" repeatCount="indefinite" />
	</path>
	<path fill-rule="evenodd" clip-rule="evenodd" fill="#31A2CC" d="M149,457c1.1-0.6,2.2-1.3,3.3-1.9c0,2.5,0,4.9,0,7.4
			c-1.1,0.6-2.2,1.3-3.3,1.9C149,462,149,459.5,149,457z">
	    <animate attributeName="opacity" values="1;.4;1" dur="0.9s" keyTimes="0;0.4;1" repeatCount="indefinite" />
	</path>
	<path fill-rule="evenodd" clip-rule="evenodd" fill="#97BEE6" d="M227.4,400.6c9.4-5.5,18.9-10.9,28.3-16.4c0,3.1,0,6.2,0,9.3
		c0,3.1,0,6.2,0,9.3c-9.4,5.5-18.9,10.9-28.3,16.4c0-3.1,0-6.2,0-9.3C227.4,406.8,227.4,403.7,227.4,400.6z"/>
	<polygon fill-rule="evenodd" clip-rule="evenodd" fill="#13110C" points="146.5,518.8 146.5,490.6 156.6,484.8 156.6,513 	"/>
	<g>
		<path fill-rule="evenodd" clip-rule="evenodd" fill="#13110C" d="M161.6,510.1c0-9.4,0-18.8,0-28.2c3.4-1.9,6.7-3.9,10.1-5.8
			c0,9.4,0,18.8,0,28.2C168.4,506.2,165,508.1,161.6,510.1z"/>
		<path fill-rule="evenodd" clip-rule="evenodd" fill="#13110C" d="M176.7,501.3c0-9.4,0-18.8,0-28.2c3.4-1.9,6.7-3.9,10.1-5.8
			c0,9.4,0,18.8,0,28.2C183.4,497.4,180.1,499.4,176.7,501.3z"/>
		<path fill-rule="evenodd" clip-rule="evenodd" fill="#13110C" d="M191.8,492.5c0-9.4,0-18.8,0-28.2c3.4-1.9,6.7-3.9,10.1-5.8
			c0,9.4,0,18.8,0,28.2C198.5,488.6,195.2,490.6,191.8,492.5z"/>
		<path fill-rule="evenodd" clip-rule="evenodd" fill="#13110C" d="M206.9,483.8c0-9.4,0-18.8,0-28.2c3.4-1.9,6.7-3.9,10.1-5.8
			c0,9.4,0,18.8,0,28.2C213.6,479.9,210.3,481.8,206.9,483.8z"/>
		<path fill-rule="evenodd" clip-rule="evenodd" fill="#13110C" d="M222,475c0-9.4,0-18.8,0-28.2c3.4-1.9,6.7-3.9,10.1-5.8
			c0,9.4,0,18.8,0,28.2C228.7,471.1,225.3,473.1,222,475z"/>
		<path fill-rule="evenodd" clip-rule="evenodd" fill="#13110C" d="M237.1,466.3c0-9.4,0-18.8,0-28.2c3.4-1.9,6.7-3.9,10.1-5.8
			c0,9.4,0,18.8,0,28.2C243.8,462.4,240.4,464.3,237.1,466.3z"/>
	</g>
	<polygon fill-rule="evenodd" clip-rule="evenodd" fill="#111111" points="252.1,457.5 252.1,429.3 262.3,423.5 262.3,451.7 	"/>
	<path fill-rule="evenodd" clip-rule="evenodd" fill="#111111" d="M109.8,171.3c0-9.4,0-4.7,0-14.1c-3.4-1.9-6.7-3.9-10.1-5.8
		c0,9.4,0,4.7,0,14.1C103.1,167.4,106.5,169.3,109.8,171.3L109.8,171.3z M109.8,195.8c0-9.4,0-4.7,0-14.1c-3.4-1.9-6.7-3.9-10.1-5.8
		c0,9.4,0,4.7,0,14.1C103.1,191.9,106.5,193.8,109.8,195.8L109.8,195.8z M124.9,204.5v-14.1l-10.1-5.8v14.1L124.9,204.5L124.9,204.5
		z M19.3,143.2v-14.1l-10.1-5.8v14.1L19.3,143.2L19.3,143.2z M34.4,152c0-9.4,0-4.7,0-14.1c-3.4-1.9-6.7-3.9-10.1-5.8
		c0,9.4,0,4.7,0,14.1C27.6,148.1,31,150,34.4,152L34.4,152z M49.5,160.7c0-9.4,0-4.7,0-14.1c-3.4-1.9-6.7-3.9-10.1-5.8
		c0,9.4,0,4.7,0,14.1C42.7,156.8,46.1,158.8,49.5,160.7L49.5,160.7z M64.6,169.5c0-9.4,0-4.7,0-14.1c-3.4-1.9-6.7-3.9-10.1-5.8
		c0,9.4,0,4.7,0,14.1C57.8,165.6,61.2,167.5,64.6,169.5L64.6,169.5z M79.6,178.3c0-9.4,0-4.7,0-14.1c-3.4-1.9-6.7-3.9-10.1-5.8
		c0,9.4,0,4.7,0,14.1C72.9,174.4,76.3,176.3,79.6,178.3L79.6,178.3z M94.7,187c0-9.4,0-4.7,0-14.1c-3.4-1.9-6.7-3.9-10.1-5.8
		c0,9.4,0,4.7,0,14.1C88,183.1,91.4,185.1,94.7,187L94.7,187z M124.9,180v-14.1l-10.1-5.8v14.1L124.9,180L124.9,180z M19.3,118.7
		v-14.1L9.2,98.8v14.1L19.3,118.7L19.3,118.7z M34.4,127.5c0-9.4,0-4.7,0-14.1c-3.4-1.9-6.7-3.9-10.1-5.8c0,9.4,0,4.7,0,14.1
		C27.6,123.6,31,125.5,34.4,127.5L34.4,127.5z M49.5,136.2c0-9.4,0-4.7,0-14.1c-3.4-1.9-6.7-3.9-10.1-5.8c0,9.4,0,4.7,0,14.1
		C42.7,132.3,46.1,134.3,49.5,136.2L49.5,136.2z M64.6,145c0-9.4,0-4.7,0-14.1c-3.4-1.9-6.7-3.9-10.1-5.8c0,9.4,0,4.7,0,14.1
		C57.8,141.1,61.2,143,64.6,145L64.6,145z M79.6,153.8c0-9.4,0-4.7,0-14.1c-3.4-1.9-6.7-3.9-10.1-5.8c0,9.4,0,4.7,0,14.1
		C72.9,149.9,76.3,151.8,79.6,153.8L79.6,153.8z M94.7,162.5c0-9.4,0-4.7,0-14.1c-3.4-1.9-6.7-3.9-10.1-5.8c0,9.4,0,4.7,0,14.1
		C88,158.6,91.4,160.6,94.7,162.5z"/>
	<polygon fill-rule="evenodd" clip-rule="evenodd" fill="#111111" points="124.5,229.4 124.5,213.7 9,147.1 9,162.8 	"/>
	<path fill-rule="evenodd" clip-rule="evenodd" fill="#111111" d="M109.8,280.7c0-9.4,0-4.7,0-14.1c-3.4-1.9-6.7-3.9-10.1-5.8
		c0,9.4,0,4.7,0,14.1C103.1,276.8,106.5,278.8,109.8,280.7L109.8,280.7z M109.8,305.2c0-9.4,0-4.7,0-14.1c-3.4-1.9-6.7-3.9-10.1-5.8
		c0,9.4,0,4.7,0,14.1C103.1,301.3,106.5,303.3,109.8,305.2L109.8,305.2z M124.9,314v-14.1l-10.1-5.8v14.1L124.9,314L124.9,314z
		 M19.3,252.6v-14.1l-10.1-5.8v14.1L19.3,252.6L19.3,252.6z M34.4,261.4c0-9.4,0-4.7,0-14.1c-3.4-1.9-6.7-3.9-10.1-5.8
		c0,9.4,0,4.7,0,14.1C27.6,257.5,31,259.5,34.4,261.4L34.4,261.4z M49.5,270.2c0-9.4,0-4.7,0-14.1c-3.4-1.9-6.7-3.9-10.1-5.8
		c0,9.4,0,4.7,0,14.1C42.7,266.3,46.1,268.2,49.5,270.2L49.5,270.2z M64.6,278.9c0-9.4,0-4.7,0-14.1c-3.4-1.9-6.7-3.9-10.1-5.8
		c0,9.4,0,4.7,0,14.1C57.8,275,61.2,277,64.6,278.9L64.6,278.9z M79.6,287.7c0-9.4,0-4.7,0-14.1c-3.4-1.9-6.7-3.9-10.1-5.8
		c0,9.4,0,4.7,0,14.1C72.9,283.8,76.3,285.7,79.6,287.7L79.6,287.7z M94.7,296.4c0-9.4,0-4.7,0-14.1c-3.4-1.9-6.7-3.9-10.1-5.8
		c0,9.4,0,4.7,0,14.1C88,292.6,91.4,294.5,94.7,296.4L94.7,296.4z M124.9,289.5v-14.1l-10.1-5.8v14.1L124.9,289.5L124.9,289.5z
		 M19.3,228.1V214l-10.1-5.8v14.1L19.3,228.1L19.3,228.1z M34.4,236.9c0-9.4,0-4.7,0-14.1c-3.4-1.9-6.7-3.9-10.1-5.8
		c0,9.4,0,4.7,0,14.1C27.6,233,31,235,34.4,236.9L34.4,236.9z M49.5,245.7c0-9.4,0-4.7,0-14.1c-3.4-1.9-6.7-3.9-10.1-5.8
		c0,9.4,0,4.7,0,14.1C42.7,241.8,46.1,243.7,49.5,245.7L49.5,245.7z M64.6,254.4c0-9.4,0-4.7,0-14.1c-3.4-1.9-6.7-3.9-10.1-5.8
		c0,9.4,0,4.7,0,14.1C57.8,250.5,61.2,252.5,64.6,254.4L64.6,254.4z M79.6,263.2c0-9.4,0-4.7,0-14.1c-3.4-1.9-6.7-3.9-10.1-5.8
		c0,9.4,0,4.7,0,14.1C72.9,259.3,76.3,261.2,79.6,263.2L79.6,263.2z M94.7,271.9c0-9.4,0-4.7,0-14.1c-3.4-1.9-6.7-3.9-10.1-5.8
		c0,9.4,0,4.7,0,14.1C88,268.1,91.4,270,94.7,271.9z"/>
	<polygon fill-rule="evenodd" clip-rule="evenodd" fill="#111111" points="124.5,338.9 124.5,323.1 9,256.5 9,272.2 	"/>
	<path fill-rule="evenodd" clip-rule="evenodd" fill="#111111" d="M109.8,396.7c0-9.4,0-4.7,0-14.1c-3.4-1.9-6.7-3.9-10.1-5.8
		c0,9.4,0,4.7,0,14.1C103.1,392.8,106.5,394.8,109.8,396.7L109.8,396.7z M109.8,421.2c0-9.4,0-4.7,0-14.1c-3.4-1.9-6.7-3.9-10.1-5.8
		c0,9.4,0,4.7,0,14.1C103.1,417.3,106.5,419.3,109.8,421.2L109.8,421.2z M124.9,430v-14.1l-10.1-5.8v14.1L124.9,430L124.9,430z
		 M19.3,368.7v-14.1l-10.1-5.8v14.1L19.3,368.7L19.3,368.7z M34.4,377.4c0-9.4,0-4.7,0-14.1c-3.4-1.9-6.7-3.9-10.1-5.8
		c0,9.4,0,4.7,0,14.1C27.6,373.5,31,375.5,34.4,377.4L34.4,377.4z M49.5,386.2c0-9.4,0-4.7,0-14.1c-3.4-1.9-6.7-3.9-10.1-5.8
		c0,9.4,0,4.7,0,14.1C42.7,382.3,46.1,384.2,49.5,386.2L49.5,386.2z M64.6,394.9c0-9.4,0-4.7,0-14.1c-3.4-1.9-6.7-3.9-10.1-5.8
		c0,9.4,0,4.7,0,14.1C57.8,391,61.2,393,64.6,394.9L64.6,394.9z M79.6,403.7c0-9.4,0-4.7,0-14.1c-3.4-1.9-6.7-3.9-10.1-5.8
		c0,9.4,0,4.7,0,14.1C72.9,399.8,76.3,401.7,79.6,403.7L79.6,403.7z M94.7,412.5c0-9.4,0-4.7,0-14.1c-3.4-1.9-6.7-3.9-10.1-5.8
		c0,9.4,0,4.7,0,14.1C88,408.6,91.4,410.5,94.7,412.5L94.7,412.5z M124.9,405.5v-14.1l-10.1-5.8v14.1L124.9,405.5L124.9,405.5z
		 M19.3,344.2v-14.1l-10.1-5.8v14.1L19.3,344.2L19.3,344.2z M34.4,352.9c0-9.4,0-4.7,0-14.1c-3.4-1.9-6.7-3.9-10.1-5.8
		c0,9.4,0,4.7,0,14.1C27.6,349,31,351,34.4,352.9L34.4,352.9z M49.5,361.7c0-9.4,0-4.7,0-14.1c-3.4-1.9-6.7-3.9-10.1-5.8
		c0,9.4,0,4.7,0,14.1C42.7,357.8,46.1,359.7,49.5,361.7L49.5,361.7z M64.6,370.4c0-9.4,0-4.7,0-14.1c-3.4-1.9-6.7-3.9-10.1-5.8
		c0,9.4,0,4.7,0,14.1C57.8,366.5,61.2,368.5,64.6,370.4L64.6,370.4z M79.6,379.2c0-9.4,0-4.7,0-14.1c-3.4-1.9-6.7-3.9-10.1-5.8
		c0,9.4,0,4.7,0,14.1C72.9,375.3,76.3,377.2,79.6,379.2L79.6,379.2z M94.7,388c0-9.4,0-4.7,0-14.1c-3.4-1.9-6.7-3.9-10.1-5.8
		c0,9.4,0,4.7,0,14.1C88,384.1,91.4,386,94.7,388z"/>
	<polygon fill-rule="evenodd" clip-rule="evenodd" fill="#111111" points="124.5,454.9 124.5,439.1 9,372.5 9,388.2 	"/>
	<path fill-rule="evenodd" clip-rule="evenodd" fill="#111111" d="M109.5,510.1c0-9.4,0-18.8,0-28.2c-3.4-1.9-6.7-3.9-10.1-5.8
		c0,9.4,0,18.8,0,28.2C102.8,506.2,106.2,508.1,109.5,510.1L109.5,510.1z M124.6,518.8v-28.2l-10.1-5.8V513L124.6,518.8L124.6,518.8
		z M19,457.5v-28.2l-10.1-5.8v28.2L19,457.5L19,457.5z M34.1,466.3c0-9.4,0-18.8,0-28.2c-3.4-1.9-6.7-3.9-10.1-5.8
		c0,9.4,0,18.8,0,28.2C27.3,462.4,30.7,464.3,34.1,466.3L34.1,466.3z M49.2,475c0-9.4,0-18.8,0-28.2c-3.4-1.9-6.7-3.9-10.1-5.8
		c0,9.4,0,18.8,0,28.2C42.4,471.1,45.8,473.1,49.2,475L49.2,475z M64.3,483.8c0-9.4,0-18.8,0-28.2c-3.4-1.9-6.7-3.9-10.1-5.8
		c0,9.4,0,18.8,0,28.2C57.5,479.9,60.9,481.8,64.3,483.8L64.3,483.8z M79.4,492.5c0-9.4,0-18.8,0-28.2c-3.4-1.9-6.7-3.9-10.1-5.8
		c0,9.4,0,18.8,0,28.2C72.6,488.6,76,490.6,79.4,492.5L79.4,492.5z M94.5,501.3c0-9.4,0-18.8,0-28.2c-3.4-1.9-6.7-3.9-10.1-5.8
		c0,9.4,0,18.8,0,28.2C87.7,497.4,91.1,499.4,94.5,501.3z"/>
</g>
</svg>
